solid 
   facet normal 0.000000e+000 0.000000e+000 -1.000000e+000
      outer loop
         vertex 8.109917e+000 1.189971e+001 -5.000000e+000
         vertex 1.200000e+000 1.580000e+001 -5.000000e+000
         vertex 1.480000e+001 1.580000e+001 -5.000000e+000
      endloop
   endfacet
   facet normal 0.000000e+000 0.000000e+000 -1.000000e+000
      outer loop
         vertex 1.200000e+000 1.580000e+001 -5.000000e+000
         vertex 3.339746e-001 1.530000e+001 -5.000000e+000
         vertex 7.000000e-001 1.566603e+001 -5.000000e+000
      endloop
   endfacet
   facet normal 0.000000e+000 0.000000e+000 -1.000000e+000
      outer loop
         vertex 7.000000e-001 3.339746e-001 -5.000000e+000
         vertex 3.339746e-001 7.000000e-001 -5.000000e+000
         vertex 2.000000e-001 1.200000e+000 -5.000000e+000
      endloop
   endfacet
   facet normal 0.000000e+000 0.000000e+000 -1.000000e+000
      outer loop
         vertex 8.109917e+000 4.100288e+000 -5.000000e+000
         vertex 1.480000e+001 2.000000e-001 -5.000000e+000
         vertex 1.200000e+000 2.000000e-001 -5.000000e+000
      endloop
   endfacet
   facet normal 0.000000e+000 0.000000e+000 -1.000000e+000
      outer loop
         vertex 1.480000e+001 2.000000e-001 -5.000000e+000
         vertex 1.580000e+001 1.200000e+000 -5.000000e+000
         vertex 1.550711e+001 4.928932e-001 -5.000000e+000
      endloop
   endfacet
   facet normal 0.000000e+000 0.000000e+000 -1.000000e+000
      outer loop
         vertex 1.580000e+001 1.480000e+001 -5.000000e+000
         vertex 1.480000e+001 1.580000e+001 -5.000000e+000
         vertex 1.550711e+001 1.550711e+001 -5.000000e+000
      endloop
   endfacet
   facet normal -0.000000e+000 0.000000e+000 -1.000000e+000
      outer loop
         vertex 1.200000e+000 1.580000e+001 -5.000000e+000
         vertex 8.109917e+000 1.189971e+001 -5.000000e+000
         vertex 6.506041e+000 1.112733e+001 -5.000000e+000
      endloop
   endfacet
   facet normal 0.000000e+000 0.000000e+000 -1.000000e+000
      outer loop
         vertex 1.480000e+001 1.580000e+001 -5.000000e+000
         vertex 1.149396e+001 1.112733e+001 -5.000000e+000
         vertex 9.890083e+000 1.189971e+001 -5.000000e+000
      endloop
   endfacet
   facet normal 0.000000e+000 0.000000e+000 -1.000000e+000
      outer loop
         vertex 1.580000e+001 1.480000e+001 -5.000000e+000
         vertex 1.300000e+001 8.000000e+000 -5.000000e+000
         vertex 1.260388e+001 9.735535e+000 -5.000000e+000
      endloop
   endfacet
   facet normal 0.000000e+000 0.000000e+000 -1.000000e+000
      outer loop
         vertex 1.580000e+001 1.200000e+000 -5.000000e+000
         vertex 1.149396e+001 4.872674e+000 -5.000000e+000
         vertex 1.260388e+001 6.264465e+000 -5.000000e+000
      endloop
   endfacet
   facet normal 0.000000e+000 0.000000e+000 -1.000000e+000
      outer loop
         vertex 1.480000e+001 2.000000e-001 -5.000000e+000
         vertex 8.109917e+000 4.100288e+000 -5.000000e+000
         vertex 9.890083e+000 4.100288e+000 -5.000000e+000
      endloop
   endfacet
   facet normal 0.000000e+000 -0.000000e+000 -1.000000e+000
      outer loop
         vertex 2.000000e-001 1.200000e+000 -5.000000e+000
         vertex 5.396124e+000 6.264465e+000 -5.000000e+000
         vertex 6.506041e+000 4.872674e+000 -5.000000e+000
      endloop
   endfacet
   facet normal 0.000000e+000 0.000000e+000 -1.000000e+000
      outer loop
         vertex 9.890083e+000 1.189971e+001 -5.000000e+000
         vertex 8.109917e+000 1.189971e+001 -5.000000e+000
         vertex 1.480000e+001 1.580000e+001 -5.000000e+000
      endloop
   endfacet
   facet normal -0.000000e+000 0.000000e+000 -1.000000e+000
      outer loop
         vertex 6.506041e+000 4.872674e+000 -5.000000e+000
         vertex 8.109917e+000 4.100288e+000 -5.000000e+000
         vertex 1.200000e+000 2.000000e-001 -5.000000e+000
      endloop
   endfacet
   facet normal 0.000000e+000 -0.000000e+000 -1.000000e+000
      outer loop
         vertex 2.000000e-001 1.480000e+001 -5.000000e+000
         vertex 1.200000e+000 1.580000e+001 -5.000000e+000
         vertex 6.506041e+000 1.112733e+001 -5.000000e+000
      endloop
   endfacet
   facet normal 0.000000e+000 0.000000e+000 -1.000000e+000
      outer loop
         vertex 1.149396e+001 1.112733e+001 -5.000000e+000
         vertex 1.580000e+001 1.480000e+001 -5.000000e+000
         vertex 1.260388e+001 9.735535e+000 -5.000000e+000
      endloop
   endfacet
   facet normal 0.000000e+000 0.000000e+000 -1.000000e+000
      outer loop
         vertex 1.480000e+001 2.000000e-001 -5.000000e+000
         vertex 1.149396e+001 4.872674e+000 -5.000000e+000
         vertex 1.580000e+001 1.200000e+000 -5.000000e+000
      endloop
   endfacet
   facet normal -0.000000e+000 0.000000e+000 -1.000000e+000
      outer loop
         vertex 5.000000e+000 8.000000e+000 -5.000000e+000
         vertex 5.396124e+000 6.264465e+000 -5.000000e+000
         vertex 2.000000e-001 1.200000e+000 -5.000000e+000
      endloop
   endfacet
   facet normal 0.000000e+000 0.000000e+000 -1.000000e+000
      outer loop
         vertex 3.339746e-001 1.530000e+001 -5.000000e+000
         vertex 1.200000e+000 1.580000e+001 -5.000000e+000
         vertex 2.000000e-001 1.480000e+001 -5.000000e+000
      endloop
   endfacet
   facet normal 0.000000e+000 0.000000e+000 -1.000000e+000
      outer loop
         vertex 5.000000e+000 8.000000e+000 -5.000000e+000
         vertex 2.000000e-001 1.200000e+000 -5.000000e+000
         vertex 2.000000e-001 1.480000e+001 -5.000000e+000
      endloop
   endfacet
   facet normal 0.000000e+000 -0.000000e+000 -1.000000e+000
      outer loop
         vertex 1.300000e+001 8.000000e+000 -5.000000e+000
         vertex 1.580000e+001 1.480000e+001 -5.000000e+000
         vertex 1.580000e+001 1.200000e+000 -5.000000e+000
      endloop
   endfacet
   facet normal -0.000000e+000 0.000000e+000 -1.000000e+000
      outer loop
         vertex 2.000000e-001 1.480000e+001 -5.000000e+000
         vertex 6.506041e+000 1.112733e+001 -5.000000e+000
         vertex 5.396124e+000 9.735535e+000 -5.000000e+000
      endloop
   endfacet
   facet normal 0.000000e+000 0.000000e+000 -1.000000e+000
      outer loop
         vertex 1.480000e+001 2.000000e-001 -5.000000e+000
         vertex 9.890083e+000 4.100288e+000 -5.000000e+000
         vertex 1.149396e+001 4.872674e+000 -5.000000e+000
      endloop
   endfacet
   facet normal 0.000000e+000 -0.000000e+000 -1.000000e+000
      outer loop
         vertex 1.149396e+001 1.112733e+001 -5.000000e+000
         vertex 1.480000e+001 1.580000e+001 -5.000000e+000
         vertex 1.580000e+001 1.480000e+001 -5.000000e+000
      endloop
   endfacet
   facet normal 0.000000e+000 0.000000e+000 -1.000000e+000
      outer loop
         vertex 1.200000e+000 2.000000e-001 -5.000000e+000
         vertex 2.000000e-001 1.200000e+000 -5.000000e+000
         vertex 6.506041e+000 4.872674e+000 -5.000000e+000
      endloop
   endfacet
   facet normal 0.000000e+000 -0.000000e+000 -1.000000e+000
      outer loop
         vertex 1.260388e+001 6.264465e+000 -5.000000e+000
         vertex 1.300000e+001 8.000000e+000 -5.000000e+000
         vertex 1.580000e+001 1.200000e+000 -5.000000e+000
      endloop
   endfacet
   facet normal 0.000000e+000 0.000000e+000 -1.000000e+000
      outer loop
         vertex 2.000000e-001 1.200000e+000 -5.000000e+000
         vertex 1.200000e+000 2.000000e-001 -5.000000e+000
         vertex 7.000000e-001 3.339746e-001 -5.000000e+000
      endloop
   endfacet
   facet normal 0.000000e+000 0.000000e+000 -1.000000e+000
      outer loop
         vertex 5.396124e+000 9.735535e+000 -5.000000e+000
         vertex 5.000000e+000 8.000000e+000 -5.000000e+000
         vertex 2.000000e-001 1.480000e+001 -5.000000e+000
      endloop
   endfacet
   facet normal -9.659258e-001 2.588190e-001 0.000000e+000
      outer loop
         vertex 6.000000e+000 8.000000e+000 -8.000000e+000
         vertex 6.000000e+000 8.000000e+000 -6.000000e+000
         vertex 6.401924e+000 9.500000e+000 -6.000000e+000
      endloop
   endfacet
   facet normal -2.588193e-001 9.659258e-001 0.000000e+000
      outer loop
         vertex 7.500000e+000 1.059808e+001 -6.000000e+000
         vertex 9.000000e+000 1.100000e+001 -6.000000e+000
         vertex 9.000000e+000 1.100000e+001 -8.000000e+000
      endloop
   endfacet
   facet normal 7.071068e-001 7.071068e-001 0.000000e+000
      outer loop
         vertex 1.050000e+001 1.059808e+001 -6.000000e+000
         vertex 1.159808e+001 9.500000e+000 -6.000000e+000
         vertex 1.159808e+001 9.500000e+000 -8.000000e+000
      endloop
   endfacet
   facet normal 9.659258e-001 -2.588193e-001 0.000000e+000
      outer loop
         vertex 1.200000e+001 8.000000e+000 -6.000000e+000
         vertex 1.159808e+001 6.500000e+000 -6.000000e+000
         vertex 1.159808e+001 6.500000e+000 -8.000000e+000
      endloop
   endfacet
   facet normal 2.588190e-001 -9.659258e-001 0.000000e+000
      outer loop
         vertex 1.050000e+001 5.401924e+000 -6.000000e+000
         vertex 9.000000e+000 5.000000e+000 -6.000000e+000
         vertex 9.000000e+000 5.000000e+000 -8.000000e+000
      endloop
   endfacet
   facet normal -7.071068e-001 -7.071068e-001 -0.000000e+000
      outer loop
         vertex 7.500000e+000 5.401924e+000 -6.000000e+000
         vertex 6.401924e+000 6.500000e+000 -6.000000e+000
         vertex 6.401924e+000 6.500000e+000 -8.000000e+000
      endloop
   endfacet
   facet normal -9.659258e-001 -2.588190e-001 0.000000e+000
      outer loop
         vertex 6.000000e+000 8.000000e+000 -6.000000e+000
         vertex 6.000000e+000 8.000000e+000 -8.000000e+000
         vertex 6.401924e+000 6.500000e+000 -6.000000e+000
      endloop
   endfacet
   facet normal -2.588190e-001 -9.659258e-001 0.000000e+000
      outer loop
         vertex 7.500000e+000 5.401924e+000 -8.000000e+000
         vertex 9.000000e+000 5.000000e+000 -8.000000e+000
         vertex 9.000000e+000 5.000000e+000 -6.000000e+000
      endloop
   endfacet
   facet normal 7.071069e-001 -7.071066e-001 0.000000e+000
      outer loop
         vertex 1.050000e+001 5.401924e+000 -8.000000e+000
         vertex 1.159808e+001 6.500000e+000 -8.000000e+000
         vertex 1.159808e+001 6.500000e+000 -6.000000e+000
      endloop
   endfacet
   facet normal 9.659258e-001 2.588193e-001 -0.000000e+000
      outer loop
         vertex 1.200000e+001 8.000000e+000 -8.000000e+000
         vertex 1.159808e+001 9.500000e+000 -8.000000e+000
         vertex 1.159808e+001 9.500000e+000 -6.000000e+000
      endloop
   endfacet
   facet normal 2.588193e-001 9.659258e-001 -0.000000e+000
      outer loop
         vertex 1.050000e+001 1.059808e+001 -8.000000e+000
         vertex 9.000000e+000 1.100000e+001 -8.000000e+000
         vertex 9.000000e+000 1.100000e+001 -6.000000e+000
      endloop
   endfacet
   facet normal -7.071066e-001 7.071069e-001 0.000000e+000
      outer loop
         vertex 7.500000e+000 1.059808e+001 -8.000000e+000
         vertex 6.401924e+000 9.500000e+000 -8.000000e+000
         vertex 6.401924e+000 9.500000e+000 -6.000000e+000
      endloop
   endfacet
   facet normal -9.659258e-001 2.588190e-001 0.000000e+000
      outer loop
         vertex 6.000000e+000 8.000000e+000 -8.000000e+000
         vertex 6.401924e+000 9.500000e+000 -6.000000e+000
         vertex 6.401924e+000 9.500000e+000 -8.000000e+000
      endloop
   endfacet
   facet normal 9.659258e-001 -2.588193e-001 0.000000e+000
      outer loop
         vertex 1.200000e+001 8.000000e+000 -6.000000e+000
         vertex 1.159808e+001 6.500000e+000 -8.000000e+000
         vertex 1.200000e+001 8.000000e+000 -8.000000e+000
      endloop
   endfacet
   facet normal -9.659258e-001 -2.588190e-001 -0.000000e+000
      outer loop
         vertex 6.401924e+000 6.500000e+000 -8.000000e+000
         vertex 6.401924e+000 6.500000e+000 -6.000000e+000
         vertex 6.000000e+000 8.000000e+000 -8.000000e+000
      endloop
   endfacet
   facet normal 9.659258e-001 2.588193e-001 0.000000e+000
      outer loop
         vertex 1.200000e+001 8.000000e+000 -8.000000e+000
         vertex 1.159808e+001 9.500000e+000 -6.000000e+000
         vertex 1.200000e+001 8.000000e+000 -6.000000e+000
      endloop
   endfacet
   facet normal -7.071066e-001 7.071069e-001 0.000000e+000
      outer loop
         vertex 6.401924e+000 9.500000e+000 -6.000000e+000
         vertex 7.500000e+000 1.059808e+001 -6.000000e+000
         vertex 7.500000e+000 1.059808e+001 -8.000000e+000
      endloop
   endfacet
   facet normal 7.071069e-001 -7.071066e-001 0.000000e+000
      outer loop
         vertex 1.159808e+001 6.500000e+000 -6.000000e+000
         vertex 1.050000e+001 5.401924e+000 -6.000000e+000
         vertex 1.050000e+001 5.401924e+000 -8.000000e+000
      endloop
   endfacet
   facet normal -7.071068e-001 -7.071068e-001 0.000000e+000
      outer loop
         vertex 6.401924e+000 6.500000e+000 -8.000000e+000
         vertex 7.500000e+000 5.401924e+000 -8.000000e+000
         vertex 7.500000e+000 5.401924e+000 -6.000000e+000
      endloop
   endfacet
   facet normal 7.071068e-001 7.071068e-001 -0.000000e+000
      outer loop
         vertex 1.159808e+001 9.500000e+000 -8.000000e+000
         vertex 1.050000e+001 1.059808e+001 -8.000000e+000
         vertex 1.050000e+001 1.059808e+001 -6.000000e+000
      endloop
   endfacet
   facet normal -2.588193e-001 9.659258e-001 0.000000e+000
      outer loop
         vertex 7.500000e+000 1.059808e+001 -6.000000e+000
         vertex 9.000000e+000 1.100000e+001 -8.000000e+000
         vertex 7.500000e+000 1.059808e+001 -8.000000e+000
      endloop
   endfacet
   facet normal 2.588193e-001 9.659258e-001 0.000000e+000
      outer loop
         vertex 1.050000e+001 1.059808e+001 -8.000000e+000
         vertex 9.000000e+000 1.100000e+001 -6.000000e+000
         vertex 1.050000e+001 1.059808e+001 -6.000000e+000
      endloop
   endfacet
   facet normal -2.588190e-001 -9.659258e-001 -0.000000e+000
      outer loop
         vertex 9.000000e+000 5.000000e+000 -6.000000e+000
         vertex 7.500000e+000 5.401924e+000 -6.000000e+000
         vertex 7.500000e+000 5.401924e+000 -8.000000e+000
      endloop
   endfacet
   facet normal 2.588190e-001 -9.659258e-001 0.000000e+000
      outer loop
         vertex 1.050000e+001 5.401924e+000 -6.000000e+000
         vertex 9.000000e+000 5.000000e+000 -8.000000e+000
         vertex 1.050000e+001 5.401924e+000 -8.000000e+000
      endloop
   endfacet
   facet normal 0.000000e+000 -1.000000e+000 0.000000e+000
      outer loop
         vertex 1.200000e+000 2.000000e-001 -5.000000e+000
         vertex 1.480000e+001 2.000000e-001 -5.000000e+000
         vertex 1.480000e+001 2.000000e-001 -3.000000e+000
      endloop
   endfacet
   facet normal 0.000000e+000 -1.000000e+000 0.000000e+000
      outer loop
         vertex 1.200000e+000 2.000000e-001 -3.000000e+000
         vertex 1.200000e+000 2.000000e-001 -5.000000e+000
         vertex 1.480000e+001 2.000000e-001 -3.000000e+000
      endloop
   endfacet
   facet normal -1.000000e+000 -0.000000e+000 -0.000000e+000
      outer loop
         vertex 2.000000e-001 1.200000e+000 -3.000000e+000
         vertex 2.000000e-001 1.480000e+001 -3.000000e+000
         vertex 2.000000e-001 1.480000e+001 -5.000000e+000
      endloop
   endfacet
   facet normal -1.000000e+000 0.000000e+000 0.000000e+000
      outer loop
         vertex 2.000000e-001 1.200000e+000 -5.000000e+000
         vertex 2.000000e-001 1.200000e+000 -3.000000e+000
         vertex 2.000000e-001 1.480000e+001 -5.000000e+000
      endloop
   endfacet
   facet normal 0.000000e+000 1.000000e+000 0.000000e+000
      outer loop
         vertex 1.200000e+000 1.580000e+001 -3.000000e+000
         vertex 1.480000e+001 1.580000e+001 -3.000000e+000
         vertex 1.480000e+001 1.580000e+001 -5.000000e+000
      endloop
   endfacet
   facet normal 0.000000e+000 1.000000e+000 0.000000e+000
      outer loop
         vertex 1.200000e+000 1.580000e+001 -5.000000e+000
         vertex 1.200000e+000 1.580000e+001 -3.000000e+000
         vertex 1.480000e+001 1.580000e+001 -5.000000e+000
      endloop
   endfacet
   facet normal 1.000000e+000 0.000000e+000 -0.000000e+000
      outer loop
         vertex 1.580000e+001 1.200000e+000 -5.000000e+000
         vertex 1.580000e+001 1.480000e+001 -5.000000e+000
         vertex 1.580000e+001 1.480000e+001 -3.000000e+000
      endloop
   endfacet
   facet normal 1.000000e+000 0.000000e+000 0.000000e+000
      outer loop
         vertex 1.580000e+001 1.200000e+000 -3.000000e+000
         vertex 1.580000e+001 1.200000e+000 -5.000000e+000
         vertex 1.580000e+001 1.480000e+001 -3.000000e+000
      endloop
   endfacet
   facet normal 0.000000e+000 0.000000e+000 -1.000000e+000
      outer loop
         vertex 6.401924e+000 6.500000e+000 -8.000000e+000
         vertex 6.000000e+000 8.000000e+000 -8.000000e+000
         vertex 6.401924e+000 9.500000e+000 -8.000000e+000
      endloop
   endfacet
   facet normal 0.000000e+000 0.000000e+000 -1.000000e+000
      outer loop
         vertex 7.500000e+000 1.059808e+001 -8.000000e+000
         vertex 9.000000e+000 1.100000e+001 -8.000000e+000
         vertex 6.401924e+000 9.500000e+000 -8.000000e+000
      endloop
   endfacet
   facet normal -0.000000e+000 0.000000e+000 -1.000000e+000
      outer loop
         vertex 1.159808e+001 9.500000e+000 -8.000000e+000
         vertex 1.200000e+001 8.000000e+000 -8.000000e+000
         vertex 1.159808e+001 6.500000e+000 -8.000000e+000
      endloop
   endfacet
   facet normal 0.000000e+000 0.000000e+000 -1.000000e+000
      outer loop
         vertex 1.050000e+001 5.401924e+000 -8.000000e+000
         vertex 9.000000e+000 5.000000e+000 -8.000000e+000
         vertex 1.159808e+001 6.500000e+000 -8.000000e+000
      endloop
   endfacet
   facet normal 0.000000e+000 0.000000e+000 -1.000000e+000
      outer loop
         vertex 6.401924e+000 6.500000e+000 -8.000000e+000
         vertex 6.401924e+000 9.500000e+000 -8.000000e+000
         vertex 9.000000e+000 1.100000e+001 -8.000000e+000
      endloop
   endfacet
   facet normal 0.000000e+000 0.000000e+000 -1.000000e+000
      outer loop
         vertex 1.159808e+001 6.500000e+000 -8.000000e+000
         vertex 9.000000e+000 5.000000e+000 -8.000000e+000
         vertex 6.401924e+000 6.500000e+000 -8.000000e+000
      endloop
   endfacet
   facet normal 0.000000e+000 0.000000e+000 -1.000000e+000
      outer loop
         vertex 1.159808e+001 6.500000e+000 -8.000000e+000
         vertex 6.401924e+000 6.500000e+000 -8.000000e+000
         vertex 9.000000e+000 1.100000e+001 -8.000000e+000
      endloop
   endfacet
   facet normal -0.000000e+000 -0.000000e+000 -1.000000e+000
      outer loop
         vertex 9.000000e+000 1.100000e+001 -8.000000e+000
         vertex 1.050000e+001 1.059808e+001 -8.000000e+000
         vertex 1.159808e+001 9.500000e+000 -8.000000e+000
      endloop
   endfacet
   facet normal 0.000000e+000 0.000000e+000 -1.000000e+000
      outer loop
         vertex 7.500000e+000 5.401924e+000 -8.000000e+000
         vertex 6.401924e+000 6.500000e+000 -8.000000e+000
         vertex 9.000000e+000 5.000000e+000 -8.000000e+000
      endloop
   endfacet
   facet normal -0.000000e+000 -0.000000e+000 -1.000000e+000
      outer loop
         vertex 9.000000e+000 1.100000e+001 -8.000000e+000
         vertex 1.159808e+001 9.500000e+000 -8.000000e+000
         vertex 1.159808e+001 6.500000e+000 -8.000000e+000
      endloop
   endfacet
   facet normal 0.000000e+000 0.000000e+000 1.000000e+000
      outer loop
         vertex 1.580000e+001 1.200000e+000 -3.000000e+000
         vertex 1.580000e+001 1.480000e+001 -3.000000e+000
         vertex 1.380000e+001 3.200000e+000 -3.000000e+000
      endloop
   endfacet
   facet normal 0.000000e+000 0.000000e+000 1.000000e+000
      outer loop
         vertex 1.550711e+001 1.550711e+001 -3.000000e+000
         vertex 1.480000e+001 1.580000e+001 -3.000000e+000
         vertex 1.580000e+001 1.480000e+001 -3.000000e+000
      endloop
   endfacet
   facet normal 0.000000e+000 0.000000e+000 1.000000e+000
      outer loop
         vertex 4.928932e-001 1.550711e+001 -3.000000e+000
         vertex 2.000000e-001 1.480000e+001 -3.000000e+000
         vertex 1.200000e+000 1.580000e+001 -3.000000e+000
      endloop
   endfacet
   facet normal 0.000000e+000 0.000000e+000 1.000000e+000
      outer loop
         vertex 3.339746e-001 7.000000e-001 -3.000000e+000
         vertex 7.000000e-001 3.339746e-001 -3.000000e+000
         vertex 2.000000e-001 1.200000e+000 -3.000000e+000
      endloop
   endfacet
   facet normal 0.000000e+000 -0.000000e+000 1.000000e+000
      outer loop
         vertex 1.480000e+001 2.000000e-001 -3.000000e+000
         vertex 1.530000e+001 3.339746e-001 -3.000000e+000
         vertex 1.566603e+001 7.000000e-001 -3.000000e+000
      endloop
   endfacet
   facet normal 0.000000e+000 -0.000000e+000 1.000000e+000
      outer loop
         vertex 3.200000e+000 1.380000e+001 -3.000000e+000
         vertex 1.280000e+001 1.380000e+001 -3.000000e+000
         vertex 1.480000e+001 1.580000e+001 -3.000000e+000
      endloop
   endfacet
   facet normal 0.000000e+000 -0.000000e+000 1.000000e+000
      outer loop
         vertex 1.330000e+001 1.366603e+001 -3.000000e+000
         vertex 1.366603e+001 1.330000e+001 -3.000000e+000
         vertex 1.580000e+001 1.480000e+001 -3.000000e+000
      endloop
   endfacet
   facet normal 0.000000e+000 0.000000e+000 1.000000e+000
      outer loop
         vertex 1.380000e+001 1.280000e+001 -3.000000e+000
         vertex 1.380000e+001 3.200000e+000 -3.000000e+000
         vertex 1.580000e+001 1.480000e+001 -3.000000e+000
      endloop
   endfacet
   facet normal -0.000000e+000 0.000000e+000 1.000000e+000
      outer loop
         vertex 1.350711e+001 2.492893e+000 -3.000000e+000
         vertex 1.280000e+001 2.200000e+000 -3.000000e+000
         vertex 1.480000e+001 2.000000e-001 -3.000000e+000
      endloop
   endfacet
   facet normal 0.000000e+000 0.000000e+000 1.000000e+000
      outer loop
         vertex 3.200000e+000 2.200000e+000 -3.000000e+000
         vertex 2.700000e+000 2.333975e+000 -3.000000e+000
         vertex 1.200000e+000 2.000000e-001 -3.000000e+000
      endloop
   endfacet
   facet normal 0.000000e+000 0.000000e+000 1.000000e+000
      outer loop
         vertex 2.333975e+000 2.700000e+000 -3.000000e+000
         vertex 2.200000e+000 3.200000e+000 -3.000000e+000
         vertex 2.000000e-001 1.200000e+000 -3.000000e+000
      endloop
   endfacet
   facet normal 0.000000e+000 0.000000e+000 1.000000e+000
      outer loop
         vertex 2.200000e+000 1.280000e+001 -3.000000e+000
         vertex 2.492893e+000 1.350711e+001 -3.000000e+000
         vertex 2.000000e-001 1.480000e+001 -3.000000e+000
      endloop
   endfacet
   facet normal 0.000000e+000 0.000000e+000 1.000000e+000
      outer loop
         vertex 1.580000e+001 1.200000e+000 -3.000000e+000
         vertex 1.380000e+001 3.200000e+000 -3.000000e+000
         vertex 1.350711e+001 2.492893e+000 -3.000000e+000
      endloop
   endfacet
   facet normal -0.000000e+000 -0.000000e+000 1.000000e+000
      outer loop
         vertex 2.000000e-001 1.200000e+000 -3.000000e+000
         vertex 7.000000e-001 3.339746e-001 -3.000000e+000
         vertex 1.200000e+000 2.000000e-001 -3.000000e+000
      endloop
   endfacet
   facet normal -0.000000e+000 0.000000e+000 1.000000e+000
      outer loop
         vertex 1.480000e+001 1.580000e+001 -3.000000e+000
         vertex 1.280000e+001 1.380000e+001 -3.000000e+000
         vertex 1.330000e+001 1.366603e+001 -3.000000e+000
      endloop
   endfacet
   facet normal 0.000000e+000 0.000000e+000 1.000000e+000
      outer loop
         vertex 1.380000e+001 1.280000e+001 -3.000000e+000
         vertex 1.580000e+001 1.480000e+001 -3.000000e+000
         vertex 1.366603e+001 1.330000e+001 -3.000000e+000
      endloop
   endfacet
   facet normal 0.000000e+000 0.000000e+000 1.000000e+000
      outer loop
         vertex 1.200000e+000 2.000000e-001 -3.000000e+000
         vertex 2.700000e+000 2.333975e+000 -3.000000e+000
         vertex 2.333975e+000 2.700000e+000 -3.000000e+000
      endloop
   endfacet
   facet normal 0.000000e+000 0.000000e+000 1.000000e+000
      outer loop
         vertex 2.200000e+000 1.280000e+001 -3.000000e+000
         vertex 2.000000e-001 1.480000e+001 -3.000000e+000
         vertex 2.200000e+000 3.200000e+000 -3.000000e+000
      endloop
   endfacet
   facet normal 0.000000e+000 -0.000000e+000 1.000000e+000
      outer loop
         vertex 2.000000e-001 1.200000e+000 -3.000000e+000
         vertex 1.200000e+000 2.000000e-001 -3.000000e+000
         vertex 2.333975e+000 2.700000e+000 -3.000000e+000
      endloop
   endfacet
   facet normal -0.000000e+000 0.000000e+000 1.000000e+000
      outer loop
         vertex 1.480000e+001 1.580000e+001 -3.000000e+000
         vertex 1.200000e+000 1.580000e+001 -3.000000e+000
         vertex 3.200000e+000 1.380000e+001 -3.000000e+000
      endloop
   endfacet
   facet normal 0.000000e+000 0.000000e+000 1.000000e+000
      outer loop
         vertex 1.200000e+000 2.000000e-001 -3.000000e+000
         vertex 1.480000e+001 2.000000e-001 -3.000000e+000
         vertex 3.200000e+000 2.200000e+000 -3.000000e+000
      endloop
   endfacet
   facet normal -0.000000e+000 0.000000e+000 1.000000e+000
      outer loop
         vertex 1.280000e+001 2.200000e+000 -3.000000e+000
         vertex 3.200000e+000 2.200000e+000 -3.000000e+000
         vertex 1.480000e+001 2.000000e-001 -3.000000e+000
      endloop
   endfacet
   facet normal 0.000000e+000 0.000000e+000 1.000000e+000
      outer loop
         vertex 1.580000e+001 1.480000e+001 -3.000000e+000
         vertex 1.480000e+001 1.580000e+001 -3.000000e+000
         vertex 1.330000e+001 1.366603e+001 -3.000000e+000
      endloop
   endfacet
   facet normal 0.000000e+000 -0.000000e+000 1.000000e+000
      outer loop
         vertex 1.480000e+001 2.000000e-001 -3.000000e+000
         vertex 1.566603e+001 7.000000e-001 -3.000000e+000
         vertex 1.580000e+001 1.200000e+000 -3.000000e+000
      endloop
   endfacet
   facet normal 0.000000e+000 0.000000e+000 1.000000e+000
      outer loop
         vertex 2.000000e-001 1.480000e+001 -3.000000e+000
         vertex 2.492893e+000 1.350711e+001 -3.000000e+000
         vertex 1.200000e+000 1.580000e+001 -3.000000e+000
      endloop
   endfacet
   facet normal 0.000000e+000 0.000000e+000 1.000000e+000
      outer loop
         vertex 3.200000e+000 1.380000e+001 -3.000000e+000
         vertex 1.200000e+000 1.580000e+001 -3.000000e+000
         vertex 2.492893e+000 1.350711e+001 -3.000000e+000
      endloop
   endfacet
   facet normal 0.000000e+000 0.000000e+000 1.000000e+000
      outer loop
         vertex 2.000000e-001 1.480000e+001 -3.000000e+000
         vertex 2.000000e-001 1.200000e+000 -3.000000e+000
         vertex 2.200000e+000 3.200000e+000 -3.000000e+000
      endloop
   endfacet
   facet normal 0.000000e+000 0.000000e+000 1.000000e+000
      outer loop
         vertex 1.580000e+001 1.200000e+000 -3.000000e+000
         vertex 1.350711e+001 2.492893e+000 -3.000000e+000
         vertex 1.480000e+001 2.000000e-001 -3.000000e+000
      endloop
   endfacet
   facet normal -0.000000e+000 -1.000000e+000 -0.000000e+000
      outer loop
         vertex 1.280000e+001 2.200000e+000 -3.000000e+000
         vertex 1.280000e+001 2.200000e+000 -1.000000e+000
         vertex 3.200000e+000 2.200000e+000 -1.000000e+000
      endloop
   endfacet
   facet normal 0.000000e+000 -1.000000e+000 0.000000e+000
      outer loop
         vertex 3.200000e+000 2.200000e+000 -3.000000e+000
         vertex 1.280000e+001 2.200000e+000 -3.000000e+000
         vertex 3.200000e+000 2.200000e+000 -1.000000e+000
      endloop
   endfacet
   facet normal -1.000000e+000 0.000000e+000 0.000000e+000
      outer loop
         vertex 2.200000e+000 3.200000e+000 -3.000000e+000
         vertex 2.200000e+000 3.200000e+000 -1.000000e+000
         vertex 2.200000e+000 1.280000e+001 -1.000000e+000
      endloop
   endfacet
   facet normal -1.000000e+000 0.000000e+000 0.000000e+000
      outer loop
         vertex 2.200000e+000 1.280000e+001 -3.000000e+000
         vertex 2.200000e+000 3.200000e+000 -3.000000e+000
         vertex 2.200000e+000 1.280000e+001 -1.000000e+000
      endloop
   endfacet
   facet normal -0.000000e+000 1.000000e+000 0.000000e+000
      outer loop
         vertex 3.200000e+000 1.380000e+001 -3.000000e+000
         vertex 3.200000e+000 1.380000e+001 -1.000000e+000
         vertex 1.280000e+001 1.380000e+001 -1.000000e+000
      endloop
   endfacet
   facet normal 0.000000e+000 1.000000e+000 0.000000e+000
      outer loop
         vertex 1.280000e+001 1.380000e+001 -3.000000e+000
         vertex 3.200000e+000 1.380000e+001 -3.000000e+000
         vertex 1.280000e+001 1.380000e+001 -1.000000e+000
      endloop
   endfacet
   facet normal 1.000000e+000 0.000000e+000 0.000000e+000
      outer loop
         vertex 1.380000e+001 1.280000e+001 -3.000000e+000
         vertex 1.380000e+001 1.280000e+001 -1.000000e+000
         vertex 1.380000e+001 3.200000e+000 -1.000000e+000
      endloop
   endfacet
   facet normal 1.000000e+000 0.000000e+000 0.000000e+000
      outer loop
         vertex 1.380000e+001 3.200000e+000 -3.000000e+000
         vertex 1.380000e+001 1.280000e+001 -3.000000e+000
         vertex 1.380000e+001 3.200000e+000 -1.000000e+000
      endloop
   endfacet
   facet normal 0.000000e+000 -0.000000e+000 1.000000e+000
      outer loop
         vertex 3.200000e+000 3.200000e+000 0.000000e+000
         vertex 1.280000e+001 3.200000e+000 0.000000e+000
         vertex 1.280000e+001 1.280000e+001 0.000000e+000
      endloop
   endfacet
   facet normal 0.000000e+000 0.000000e+000 1.000000e+000
      outer loop
         vertex 3.200000e+000 1.280000e+001 0.000000e+000
         vertex 3.200000e+000 3.200000e+000 0.000000e+000
         vertex 1.280000e+001 1.280000e+001 0.000000e+000
      endloop
   endfacet
   facet normal -2.588190e-001 -9.659258e-001 0.000000e+000
      outer loop
         vertex 2.700000e+000 2.333975e+000 -3.000000e+000
         vertex 3.200000e+000 2.200000e+000 -3.000000e+000
         vertex 3.200000e+000 2.200000e+000 -1.000000e+000
      endloop
   endfacet
   facet normal -9.659258e-001 -2.588190e-001 0.000000e+000
      outer loop
         vertex 2.200000e+000 3.200000e+000 -1.000000e+000
         vertex 2.200000e+000 3.200000e+000 -3.000000e+000
         vertex 2.333975e+000 2.700000e+000 -3.000000e+000
      endloop
   endfacet
   facet normal -7.071068e-001 -7.071068e-001 -0.000000e+000
      outer loop
         vertex 2.700000e+000 2.333975e+000 -3.000000e+000
         vertex 2.700000e+000 2.333975e+000 -1.000000e+000
         vertex 2.333975e+000 2.700000e+000 -1.000000e+000
      endloop
   endfacet
   facet normal -2.588190e-001 -9.659258e-001 0.000000e+000
      outer loop
         vertex 2.700000e+000 2.333975e+000 -1.000000e+000
         vertex 2.700000e+000 2.333975e+000 -3.000000e+000
         vertex 3.200000e+000 2.200000e+000 -1.000000e+000
      endloop
   endfacet
   facet normal -7.071068e-001 -7.071068e-001 0.000000e+000
      outer loop
         vertex 2.333975e+000 2.700000e+000 -1.000000e+000
         vertex 2.333975e+000 2.700000e+000 -3.000000e+000
         vertex 2.700000e+000 2.333975e+000 -3.000000e+000
      endloop
   endfacet
   facet normal -9.659258e-001 -2.588190e-001 0.000000e+000
      outer loop
         vertex 2.333975e+000 2.700000e+000 -1.000000e+000
         vertex 2.200000e+000 3.200000e+000 -1.000000e+000
         vertex 2.333975e+000 2.700000e+000 -3.000000e+000
      endloop
   endfacet
   facet normal 9.659256e-001 -2.588198e-001 0.000000e+000
      outer loop
         vertex 1.366603e+001 2.700000e+000 -1.000000e+000
         vertex 1.380000e+001 3.200000e+000 -3.000000e+000
         vertex 1.380000e+001 3.200000e+000 -1.000000e+000
      endloop
   endfacet
   facet normal 3.824653e-001 -9.233528e-001 -3.376343e-002
      outer loop
         vertex 1.330000e+001 2.333975e+000 -1.000000e+000
         vertex 1.280000e+001 2.200000e+000 -3.000000e+000
         vertex 1.350711e+001 2.492893e+000 -3.000000e+000
      endloop
   endfacet
   facet normal 2.588190e-001 -9.659258e-001 0.000000e+000
      outer loop
         vertex 1.280000e+001 2.200000e+000 -3.000000e+000
         vertex 1.330000e+001 2.333975e+000 -1.000000e+000
         vertex 1.280000e+001 2.200000e+000 -1.000000e+000
      endloop
   endfacet
   facet normal 7.070046e-001 -7.070037e-001 1.703463e-002
      outer loop
         vertex 1.366603e+001 2.700000e+000 -1.000000e+000
         vertex 1.330000e+001 2.333975e+000 -1.000000e+000
         vertex 1.350711e+001 2.492893e+000 -3.000000e+000
      endloop
   endfacet
   facet normal 9.233527e-001 -3.824654e-001 -3.376326e-002
      outer loop
         vertex 1.366603e+001 2.700000e+000 -1.000000e+000
         vertex 1.350711e+001 2.492893e+000 -3.000000e+000
         vertex 1.380000e+001 3.200000e+000 -3.000000e+000
      endloop
   endfacet
   facet normal -9.659258e-001 2.588190e-001 0.000000e+000
      outer loop
         vertex 2.333975e+000 1.330000e+001 -1.000000e+000
         vertex 2.200000e+000 1.280000e+001 -3.000000e+000
         vertex 2.200000e+000 1.280000e+001 -1.000000e+000
      endloop
   endfacet
   facet normal -3.824654e-001 9.233527e-001 -3.376326e-002
      outer loop
         vertex 2.700000e+000 1.366603e+001 -1.000000e+000
         vertex 3.200000e+000 1.380000e+001 -3.000000e+000
         vertex 2.492893e+000 1.350711e+001 -3.000000e+000
      endloop
   endfacet
   facet normal -2.588198e-001 9.659256e-001 0.000000e+000
      outer loop
         vertex 3.200000e+000 1.380000e+001 -3.000000e+000
         vertex 2.700000e+000 1.366603e+001 -1.000000e+000
         vertex 3.200000e+000 1.380000e+001 -1.000000e+000
      endloop
   endfacet
   facet normal -7.070037e-001 7.070046e-001 1.703463e-002
      outer loop
         vertex 2.333975e+000 1.330000e+001 -1.000000e+000
         vertex 2.700000e+000 1.366603e+001 -1.000000e+000
         vertex 2.492893e+000 1.350711e+001 -3.000000e+000
      endloop
   endfacet
   facet normal -9.233528e-001 3.824653e-001 -3.376343e-002
      outer loop
         vertex 2.333975e+000 1.330000e+001 -1.000000e+000
         vertex 2.492893e+000 1.350711e+001 -3.000000e+000
         vertex 2.200000e+000 1.280000e+001 -3.000000e+000
      endloop
   endfacet
   facet normal 2.588198e-001 9.659256e-001 -0.000000e+000
      outer loop
         vertex 1.330000e+001 1.366603e+001 -3.000000e+000
         vertex 1.280000e+001 1.380000e+001 -3.000000e+000
         vertex 1.280000e+001 1.380000e+001 -1.000000e+000
      endloop
   endfacet
   facet normal 9.659256e-001 2.588198e-001 0.000000e+000
      outer loop
         vertex 1.366603e+001 1.330000e+001 -1.000000e+000
         vertex 1.380000e+001 1.280000e+001 -3.000000e+000
         vertex 1.366603e+001 1.330000e+001 -3.000000e+000
      endloop
   endfacet
   facet normal 9.659256e-001 2.588198e-001 0.000000e+000
      outer loop
         vertex 1.380000e+001 1.280000e+001 -3.000000e+000
         vertex 1.366603e+001 1.330000e+001 -1.000000e+000
         vertex 1.380000e+001 1.280000e+001 -1.000000e+000
      endloop
   endfacet
   facet normal 2.588198e-001 9.659256e-001 -0.000000e+000
      outer loop
         vertex 1.330000e+001 1.366603e+001 -1.000000e+000
         vertex 1.330000e+001 1.366603e+001 -3.000000e+000
         vertex 1.280000e+001 1.380000e+001 -1.000000e+000
      endloop
   endfacet
   facet normal 7.071068e-001 7.071068e-001 0.000000e+000
      outer loop
         vertex 1.330000e+001 1.366603e+001 -1.000000e+000
         vertex 1.366603e+001 1.330000e+001 -3.000000e+000
         vertex 1.330000e+001 1.366603e+001 -3.000000e+000
      endloop
   endfacet
   facet normal 7.071068e-001 7.071068e-001 0.000000e+000
      outer loop
         vertex 1.330000e+001 1.366603e+001 -1.000000e+000
         vertex 1.366603e+001 1.330000e+001 -1.000000e+000
         vertex 1.366603e+001 1.330000e+001 -3.000000e+000
      endloop
   endfacet
   facet normal -9.659258e-001 -2.588190e-001 -0.000000e+000
      outer loop
         vertex 3.339746e-001 7.000000e-001 -5.000000e+000
         vertex 3.339746e-001 7.000000e-001 -3.000000e+000
         vertex 2.000000e-001 1.200000e+000 -3.000000e+000
      endloop
   endfacet
   facet normal -2.588190e-001 -9.659258e-001 -0.000000e+000
      outer loop
         vertex 1.200000e+000 2.000000e-001 -5.000000e+000
         vertex 1.200000e+000 2.000000e-001 -3.000000e+000
         vertex 7.000000e-001 3.339746e-001 -3.000000e+000
      endloop
   endfacet
   facet normal -7.071068e-001 -7.071068e-001 0.000000e+000
      outer loop
         vertex 3.339746e-001 7.000000e-001 -3.000000e+000
         vertex 3.339746e-001 7.000000e-001 -5.000000e+000
         vertex 7.000000e-001 3.339746e-001 -5.000000e+000
      endloop
   endfacet
   facet normal -9.659258e-001 -2.588190e-001 -0.000000e+000
      outer loop
         vertex 3.339746e-001 7.000000e-001 -5.000000e+000
         vertex 2.000000e-001 1.200000e+000 -3.000000e+000
         vertex 2.000000e-001 1.200000e+000 -5.000000e+000
      endloop
   endfacet
   facet normal -7.071068e-001 -7.071068e-001 -0.000000e+000
      outer loop
         vertex 7.000000e-001 3.339746e-001 -5.000000e+000
         vertex 7.000000e-001 3.339746e-001 -3.000000e+000
         vertex 3.339746e-001 7.000000e-001 -3.000000e+000
      endloop
   endfacet
   facet normal -2.588190e-001 -9.659258e-001 0.000000e+000
      outer loop
         vertex 7.000000e-001 3.339746e-001 -5.000000e+000
         vertex 1.200000e+000 2.000000e-001 -5.000000e+000
         vertex 7.000000e-001 3.339746e-001 -3.000000e+000
      endloop
   endfacet
   facet normal 2.588190e-001 -9.659258e-001 0.000000e+000
      outer loop
         vertex 1.480000e+001 2.000000e-001 -5.000000e+000
         vertex 1.530000e+001 3.339746e-001 -3.000000e+000
         vertex 1.480000e+001 2.000000e-001 -3.000000e+000
      endloop
   endfacet
   facet normal 9.659256e-001 -2.588198e-001 0.000000e+000
      outer loop
         vertex 1.580000e+001 1.200000e+000 -5.000000e+000
         vertex 1.580000e+001 1.200000e+000 -3.000000e+000
         vertex 1.566603e+001 7.000000e-001 -3.000000e+000
      endloop
   endfacet
   facet normal 3.824653e-001 -9.233528e-001 -3.376343e-002
      outer loop
         vertex 1.530000e+001 3.339746e-001 -3.000000e+000
         vertex 1.480000e+001 2.000000e-001 -5.000000e+000
         vertex 1.550711e+001 4.928932e-001 -5.000000e+000
      endloop
   endfacet
   facet normal 7.070046e-001 -7.070038e-001 1.703462e-002
      outer loop
         vertex 1.566603e+001 7.000000e-001 -3.000000e+000
         vertex 1.530000e+001 3.339746e-001 -3.000000e+000
         vertex 1.550711e+001 4.928932e-001 -5.000000e+000
      endloop
   endfacet
   facet normal 9.233527e-001 -3.824654e-001 -3.376327e-002
      outer loop
         vertex 1.566603e+001 7.000000e-001 -3.000000e+000
         vertex 1.550711e+001 4.928932e-001 -5.000000e+000
         vertex 1.580000e+001 1.200000e+000 -5.000000e+000
      endloop
   endfacet
   facet normal -3.824654e-001 9.233527e-001 3.376327e-002
      outer loop
         vertex 7.000000e-001 1.566603e+001 -5.000000e+000
         vertex 4.928932e-001 1.550711e+001 -3.000000e+000
         vertex 1.200000e+000 1.580000e+001 -3.000000e+000
      endloop
   endfacet
   facet normal -9.659258e-001 2.588190e-001 0.000000e+000
      outer loop
         vertex 3.339746e-001 1.530000e+001 -5.000000e+000
         vertex 2.000000e-001 1.480000e+001 -5.000000e+000
         vertex 2.000000e-001 1.480000e+001 -3.000000e+000
      endloop
   endfacet
   facet normal -2.588198e-001 9.659256e-001 0.000000e+000
      outer loop
         vertex 1.200000e+000 1.580000e+001 -3.000000e+000
         vertex 1.200000e+000 1.580000e+001 -5.000000e+000
         vertex 7.000000e-001 1.566603e+001 -5.000000e+000
      endloop
   endfacet
   facet normal -9.233528e-001 3.824653e-001 3.376343e-002
      outer loop
         vertex 4.928932e-001 1.550711e+001 -3.000000e+000
         vertex 3.339746e-001 1.530000e+001 -5.000000e+000
         vertex 2.000000e-001 1.480000e+001 -3.000000e+000
      endloop
   endfacet
   facet normal -7.070038e-001 7.070046e-001 -1.703462e-002
      outer loop
         vertex 4.928932e-001 1.550711e+001 -3.000000e+000
         vertex 7.000000e-001 1.566603e+001 -5.000000e+000
         vertex 3.339746e-001 1.530000e+001 -5.000000e+000
      endloop
   endfacet
   facet normal 9.238794e-001 3.826837e-001 0.000000e+000
      outer loop
         vertex 1.580000e+001 1.480000e+001 -5.000000e+000
         vertex 1.550711e+001 1.550711e+001 -3.000000e+000
         vertex 1.580000e+001 1.480000e+001 -3.000000e+000
      endloop
   endfacet
   facet normal 3.826837e-001 9.238794e-001 -0.000000e+000
      outer loop
         vertex 1.550711e+001 1.550711e+001 -5.000000e+000
         vertex 1.480000e+001 1.580000e+001 -5.000000e+000
         vertex 1.480000e+001 1.580000e+001 -3.000000e+000
      endloop
   endfacet
   facet normal 9.238794e-001 3.826837e-001 0.000000e+000
      outer loop
         vertex 1.550711e+001 1.550711e+001 -5.000000e+000
         vertex 1.550711e+001 1.550711e+001 -3.000000e+000
         vertex 1.580000e+001 1.480000e+001 -5.000000e+000
      endloop
   endfacet
   facet normal 3.826837e-001 9.238794e-001 0.000000e+000
      outer loop
         vertex 1.550711e+001 1.550711e+001 -5.000000e+000
         vertex 1.480000e+001 1.580000e+001 -3.000000e+000
         vertex 1.550711e+001 1.550711e+001 -3.000000e+000
      endloop
   endfacet
   facet normal -3.815798e-001 7.590096e-002 -9.212143e-001
      outer loop
         vertex 5.707107e+000 8.000000e+000 -5.292893e+000
         vertex 5.000000e+000 8.000000e+000 -5.000000e+000
         vertex 5.957763e+000 9.260136e+000 -5.292893e+000
      endloop
   endfacet
   facet normal -3.306708e-001 2.637011e-001 -9.061559e-001
      outer loop
         vertex 5.396124e+000 9.735535e+000 -5.000000e+000
         vertex 6.506041e+000 1.112733e+001 -5.000000e+000
         vertex 6.671573e+000 1.032843e+001 -5.292893e+000
      endloop
   endfacet
   facet normal 0.000000e+000 4.346849e-001 -9.005826e-001
      outer loop
         vertex 8.109917e+000 1.189971e+001 -5.000000e+000
         vertex 9.890083e+000 1.189971e+001 -5.000000e+000
         vertex 9.000000e+000 1.129289e+001 -5.292893e+000
      endloop
   endfacet
   facet normal 3.306709e-001 2.637011e-001 -9.061559e-001
      outer loop
         vertex 1.149396e+001 1.112733e+001 -5.000000e+000
         vertex 1.260388e+001 9.735535e+000 -5.000000e+000
         vertex 1.132843e+001 1.032843e+001 -5.292893e+000
      endloop
   endfacet
   facet normal 3.988172e-001 -9.102749e-002 -9.125014e-001
      outer loop
         vertex 1.300000e+001 8.000000e+000 -5.000000e+000
         vertex 1.260388e+001 6.264465e+000 -5.000000e+000
         vertex 1.204224e+001 6.739864e+000 -5.292893e+000
      endloop
   endfacet
   facet normal 1.873047e-001 -3.889425e-001 -9.020203e-001
      outer loop
         vertex 1.149396e+001 4.872674e+000 -5.000000e+000
         vertex 9.890083e+000 4.100288e+000 -5.000000e+000
         vertex 1.026014e+001 4.957763e+000 -5.292893e+000
      endloop
   endfacet
   facet normal -1.873047e-001 -3.889425e-001 -9.020203e-001
      outer loop
         vertex 8.109917e+000 4.100288e+000 -5.000000e+000
         vertex 6.506041e+000 4.872674e+000 -5.000000e+000
         vertex 7.739864e+000 4.957763e+000 -5.292893e+000
      endloop
   endfacet
   facet normal -3.988173e-001 -9.102739e-002 -9.125014e-001
      outer loop
         vertex 5.396124e+000 6.264465e+000 -5.000000e+000
         vertex 5.000000e+000 8.000000e+000 -5.000000e+000
         vertex 5.957763e+000 6.739864e+000 -5.292893e+000
      endloop
   endfacet
   facet normal -9.086632e-001 -1.807444e-001 -3.763810e-001
      outer loop
         vertex 5.707107e+000 8.000000e+000 -5.292893e+000
         vertex 6.000000e+000 8.000000e+000 -6.000000e+000
         vertex 5.957763e+000 6.739864e+000 -5.292893e+000
      endloop
   endfacet
   facet normal -6.172761e-001 -6.172761e-001 -4.877914e-001
      outer loop
         vertex 6.401924e+000 6.500000e+000 -6.000000e+000
         vertex 7.500000e+000 5.401924e+000 -6.000000e+000
         vertex 6.671573e+000 5.671573e+000 -5.292893e+000
      endloop
   endfacet
   facet normal 2.297283e-001 -8.573580e-001 -4.606107e-001
      outer loop
         vertex 9.000000e+000 5.000000e+000 -6.000000e+000
         vertex 1.050000e+001 5.401924e+000 -6.000000e+000
         vertex 1.026014e+001 4.957763e+000 -5.292893e+000
      endloop
   endfacet
   facet normal 8.573579e-001 -2.297286e-001 -4.606106e-001
      outer loop
         vertex 1.159808e+001 6.500000e+000 -6.000000e+000
         vertex 1.200000e+001 8.000000e+000 -6.000000e+000
         vertex 1.204224e+001 6.739864e+000 -5.292893e+000
      endloop
   endfacet
   facet normal 6.172760e-001 6.172760e-001 -4.877917e-001
      outer loop
         vertex 1.159808e+001 9.500000e+000 -6.000000e+000
         vertex 1.050000e+001 1.059808e+001 -6.000000e+000
         vertex 1.132843e+001 1.032843e+001 -5.292893e+000
      endloop
   endfacet
   facet normal -2.297286e-001 8.573579e-001 -4.606106e-001
      outer loop
         vertex 9.000000e+000 1.100000e+001 -6.000000e+000
         vertex 7.500000e+000 1.059808e+001 -6.000000e+000
         vertex 7.739864e+000 1.104224e+001 -5.292893e+000
      endloop
   endfacet
   facet normal -8.573580e-001 2.297283e-001 -4.606107e-001
      outer loop
         vertex 6.401924e+000 9.500000e+000 -6.000000e+000
         vertex 6.000000e+000 8.000000e+000 -6.000000e+000
         vertex 5.957763e+000 9.260136e+000 -5.292893e+000
      endloop
   endfacet
   facet normal -3.092115e-001 2.066085e-001 -9.282786e-001
      outer loop
         vertex 6.671573e+000 1.032843e+001 -5.292893e+000
         vertex 5.957763e+000 9.260136e+000 -5.292893e+000
         vertex 5.396124e+000 9.735535e+000 -5.000000e+000
      endloop
   endfacet
   facet normal -6.945453e-002 3.491708e-001 -9.344816e-001
      outer loop
         vertex 9.000000e+000 1.129289e+001 -5.292893e+000
         vertex 7.739864e+000 1.104224e+001 -5.292893e+000
         vertex 8.109917e+000 1.189971e+001 -5.000000e+000
      endloop
   endfacet
   facet normal 2.006535e-001 3.002995e-001 -9.325012e-001
      outer loop
         vertex 1.132843e+001 1.032843e+001 -5.292893e+000
         vertex 1.026014e+001 1.104224e+001 -5.292893e+000
         vertex 1.149396e+001 1.112733e+001 -5.000000e+000
      endloop
   endfacet
   facet normal 3.815798e-001 7.590110e-002 -9.212143e-001
      outer loop
         vertex 1.229289e+001 8.000000e+000 -5.292893e+000
         vertex 1.204224e+001 9.260136e+000 -5.292893e+000
         vertex 1.300000e+001 8.000000e+000 -5.000000e+000
      endloop
   endfacet
   facet normal -5.269833e-001 7.886869e-001 -3.166411e-001
      outer loop
         vertex 6.671573e+000 1.032843e+001 -5.292893e+000
         vertex 7.739864e+000 1.104224e+001 -5.292893e+000
         vertex 7.500000e+000 1.059808e+001 -6.000000e+000
      endloop
   endfacet
   facet normal 1.807447e-001 9.086632e-001 -3.763809e-001
      outer loop
         vertex 9.000000e+000 1.129289e+001 -5.292893e+000
         vertex 1.026014e+001 1.104224e+001 -5.292893e+000
         vertex 9.000000e+000 1.100000e+001 -6.000000e+000
      endloop
   endfacet
   facet normal 7.886869e-001 5.269833e-001 -3.166411e-001
      outer loop
         vertex 1.132843e+001 1.032843e+001 -5.292893e+000
         vertex 1.204224e+001 9.260136e+000 -5.292893e+000
         vertex 1.159808e+001 9.500000e+000 -6.000000e+000
      endloop
   endfacet
   facet normal 3.815798e-001 -7.590110e-002 -9.212143e-001
      outer loop
         vertex 1.204224e+001 6.739864e+000 -5.292893e+000
         vertex 1.229289e+001 8.000000e+000 -5.292893e+000
         vertex 1.300000e+001 8.000000e+000 -5.000000e+000
      endloop
   endfacet
   facet normal 2.006536e-001 -3.002994e-001 -9.325011e-001
      outer loop
         vertex 1.026014e+001 4.957763e+000 -5.292893e+000
         vertex 1.132843e+001 5.671573e+000 -5.292893e+000
         vertex 1.149396e+001 4.872674e+000 -5.000000e+000
      endloop
   endfacet
   facet normal -6.945442e-002 -3.491709e-001 -9.344815e-001
      outer loop
         vertex 7.739864e+000 4.957763e+000 -5.292893e+000
         vertex 9.000000e+000 4.707107e+000 -5.292893e+000
         vertex 8.109917e+000 4.100288e+000 -5.000000e+000
      endloop
   endfacet
   facet normal -3.092114e-001 -2.066084e-001 -9.282786e-001
      outer loop
         vertex 5.957763e+000 6.739864e+000 -5.292893e+000
         vertex 6.671573e+000 5.671573e+000 -5.292893e+000
         vertex 5.396124e+000 6.264465e+000 -5.000000e+000
      endloop
   endfacet
   facet normal 7.886869e-001 -5.269833e-001 -3.166411e-001
      outer loop
         vertex 1.204224e+001 6.739864e+000 -5.292893e+000
         vertex 1.132843e+001 5.671573e+000 -5.292893e+000
         vertex 1.159808e+001 6.500000e+000 -6.000000e+000
      endloop
   endfacet
   facet normal 1.807444e-001 -9.086632e-001 -3.763810e-001
      outer loop
         vertex 1.026014e+001 4.957763e+000 -5.292893e+000
         vertex 9.000000e+000 4.707107e+000 -5.292893e+000
         vertex 9.000000e+000 5.000000e+000 -6.000000e+000
      endloop
   endfacet
   facet normal -5.269835e-001 -7.886868e-001 -3.166410e-001
      outer loop
         vertex 7.739864e+000 4.957763e+000 -5.292893e+000
         vertex 6.671573e+000 5.671573e+000 -5.292893e+000
         vertex 7.500000e+000 5.401924e+000 -6.000000e+000
      endloop
   endfacet
   facet normal -9.086632e-001 1.807444e-001 -3.763810e-001
      outer loop
         vertex 5.707107e+000 8.000000e+000 -5.292893e+000
         vertex 5.957763e+000 9.260136e+000 -5.292893e+000
         vertex 6.000000e+000 8.000000e+000 -6.000000e+000
      endloop
   endfacet
   facet normal 6.945453e-002 3.491708e-001 -9.344816e-001
      outer loop
         vertex 9.000000e+000 1.129289e+001 -5.292893e+000
         vertex 9.890083e+000 1.189971e+001 -5.000000e+000
         vertex 1.026014e+001 1.104224e+001 -5.292893e+000
      endloop
   endfacet
   facet normal 6.945442e-002 -3.491709e-001 -9.344815e-001
      outer loop
         vertex 1.026014e+001 4.957763e+000 -5.292893e+000
         vertex 9.890083e+000 4.100288e+000 -5.000000e+000
         vertex 9.000000e+000 4.707107e+000 -5.292893e+000
      endloop
   endfacet
   facet normal -3.815798e-001 -7.590096e-002 -9.212143e-001
      outer loop
         vertex 5.707107e+000 8.000000e+000 -5.292893e+000
         vertex 5.957763e+000 6.739864e+000 -5.292893e+000
         vertex 5.000000e+000 8.000000e+000 -5.000000e+000
      endloop
   endfacet
   facet normal 9.086632e-001 -1.807447e-001 -3.763809e-001
      outer loop
         vertex 1.204224e+001 6.739864e+000 -5.292893e+000
         vertex 1.200000e+001 8.000000e+000 -6.000000e+000
         vertex 1.229289e+001 8.000000e+000 -5.292893e+000
      endloop
   endfacet
   facet normal -7.886868e-001 5.269835e-001 -3.166410e-001
      outer loop
         vertex 6.401924e+000 9.500000e+000 -6.000000e+000
         vertex 5.957763e+000 9.260136e+000 -5.292893e+000
         vertex 6.671573e+000 1.032843e+001 -5.292893e+000
      endloop
   endfacet
   facet normal 1.873046e-001 3.889422e-001 -9.020205e-001
      outer loop
         vertex 1.149396e+001 1.112733e+001 -5.000000e+000
         vertex 1.026014e+001 1.104224e+001 -5.292893e+000
         vertex 9.890083e+000 1.189971e+001 -5.000000e+000
      endloop
   endfacet
   facet normal -1.807447e-001 9.086632e-001 -3.763809e-001
      outer loop
         vertex 9.000000e+000 1.129289e+001 -5.292893e+000
         vertex 9.000000e+000 1.100000e+001 -6.000000e+000
         vertex 7.739864e+000 1.104224e+001 -5.292893e+000
      endloop
   endfacet
   facet normal 0.000000e+000 -4.346849e-001 -9.005826e-001
      outer loop
         vertex 8.109917e+000 4.100288e+000 -5.000000e+000
         vertex 9.000000e+000 4.707107e+000 -5.292893e+000
         vertex 9.890083e+000 4.100288e+000 -5.000000e+000
      endloop
   endfacet
   facet normal -1.807444e-001 -9.086632e-001 -3.763810e-001
      outer loop
         vertex 9.000000e+000 5.000000e+000 -6.000000e+000
         vertex 9.000000e+000 4.707107e+000 -5.292893e+000
         vertex 7.739864e+000 4.957763e+000 -5.292893e+000
      endloop
   endfacet
   facet normal -6.172759e-001 6.172762e-001 -4.877915e-001
      outer loop
         vertex 6.401924e+000 9.500000e+000 -6.000000e+000
         vertex 6.671573e+000 1.032843e+001 -5.292893e+000
         vertex 7.500000e+000 1.059808e+001 -6.000000e+000
      endloop
   endfacet
   facet normal -3.988173e-001 9.102743e-002 -9.125014e-001
      outer loop
         vertex 5.000000e+000 8.000000e+000 -5.000000e+000
         vertex 5.396124e+000 9.735535e+000 -5.000000e+000
         vertex 5.957763e+000 9.260136e+000 -5.292893e+000
      endloop
   endfacet
   facet normal 3.988172e-001 9.102752e-002 -9.125014e-001
      outer loop
         vertex 1.260388e+001 9.735535e+000 -5.000000e+000
         vertex 1.300000e+001 8.000000e+000 -5.000000e+000
         vertex 1.204224e+001 9.260136e+000 -5.292893e+000
      endloop
   endfacet
   facet normal -3.306707e-001 -2.637011e-001 -9.061559e-001
      outer loop
         vertex 6.506041e+000 4.872674e+000 -5.000000e+000
         vertex 5.396124e+000 6.264465e+000 -5.000000e+000
         vertex 6.671573e+000 5.671573e+000 -5.292893e+000
      endloop
   endfacet
   facet normal -2.297283e-001 -8.573580e-001 -4.606107e-001
      outer loop
         vertex 7.500000e+000 5.401924e+000 -6.000000e+000
         vertex 9.000000e+000 5.000000e+000 -6.000000e+000
         vertex 7.739864e+000 4.957763e+000 -5.292893e+000
      endloop
   endfacet
   facet normal 8.573579e-001 2.297286e-001 -4.606106e-001
      outer loop
         vertex 1.200000e+001 8.000000e+000 -6.000000e+000
         vertex 1.159808e+001 9.500000e+000 -6.000000e+000
         vertex 1.204224e+001 9.260136e+000 -5.292893e+000
      endloop
   endfacet
   facet normal -2.006535e-001 3.002995e-001 -9.325012e-001
      outer loop
         vertex 7.739864e+000 1.104224e+001 -5.292893e+000
         vertex 6.671573e+000 1.032843e+001 -5.292893e+000
         vertex 6.506041e+000 1.112733e+001 -5.000000e+000
      endloop
   endfacet
   facet normal 5.269833e-001 7.886869e-001 -3.166411e-001
      outer loop
         vertex 1.026014e+001 1.104224e+001 -5.292893e+000
         vertex 1.132843e+001 1.032843e+001 -5.292893e+000
         vertex 1.050000e+001 1.059808e+001 -6.000000e+000
      endloop
   endfacet
   facet normal 3.092115e-001 -2.066083e-001 -9.282786e-001
      outer loop
         vertex 1.132843e+001 5.671573e+000 -5.292893e+000
         vertex 1.204224e+001 6.739864e+000 -5.292893e+000
         vertex 1.260388e+001 6.264465e+000 -5.000000e+000
      endloop
   endfacet
   facet normal 5.269835e-001 -7.886868e-001 -3.166410e-001
      outer loop
         vertex 1.132843e+001 5.671573e+000 -5.292893e+000
         vertex 1.026014e+001 4.957763e+000 -5.292893e+000
         vertex 1.050000e+001 5.401924e+000 -6.000000e+000
      endloop
   endfacet
   facet normal 3.092116e-001 2.066084e-001 -9.282786e-001
      outer loop
         vertex 1.132843e+001 1.032843e+001 -5.292893e+000
         vertex 1.260388e+001 9.735535e+000 -5.000000e+000
         vertex 1.204224e+001 9.260136e+000 -5.292893e+000
      endloop
   endfacet
   facet normal -7.886868e-001 -5.269835e-001 -3.166410e-001
      outer loop
         vertex 6.401924e+000 6.500000e+000 -6.000000e+000
         vertex 6.671573e+000 5.671573e+000 -5.292893e+000
         vertex 5.957763e+000 6.739864e+000 -5.292893e+000
      endloop
   endfacet
   facet normal 3.306708e-001 -2.637011e-001 -9.061559e-001
      outer loop
         vertex 1.149396e+001 4.872674e+000 -5.000000e+000
         vertex 1.132843e+001 5.671573e+000 -5.292893e+000
         vertex 1.260388e+001 6.264465e+000 -5.000000e+000
      endloop
   endfacet
   facet normal -2.006536e-001 -3.002994e-001 -9.325011e-001
      outer loop
         vertex 6.506041e+000 4.872674e+000 -5.000000e+000
         vertex 6.671573e+000 5.671573e+000 -5.292893e+000
         vertex 7.739864e+000 4.957763e+000 -5.292893e+000
      endloop
   endfacet
   facet normal 6.172762e-001 -6.172759e-001 -4.877915e-001
      outer loop
         vertex 1.132843e+001 5.671573e+000 -5.292893e+000
         vertex 1.050000e+001 5.401924e+000 -6.000000e+000
         vertex 1.159808e+001 6.500000e+000 -6.000000e+000
      endloop
   endfacet
   facet normal -1.873046e-001 3.889422e-001 -9.020205e-001
      outer loop
         vertex 6.506041e+000 1.112733e+001 -5.000000e+000
         vertex 8.109917e+000 1.189971e+001 -5.000000e+000
         vertex 7.739864e+000 1.104224e+001 -5.292893e+000
      endloop
   endfacet
   facet normal 2.297286e-001 8.573579e-001 -4.606106e-001
      outer loop
         vertex 1.050000e+001 1.059808e+001 -6.000000e+000
         vertex 9.000000e+000 1.100000e+001 -6.000000e+000
         vertex 1.026014e+001 1.104224e+001 -5.292893e+000
      endloop
   endfacet
   facet normal -8.573580e-001 -2.297283e-001 -4.606107e-001
      outer loop
         vertex 5.957763e+000 6.739864e+000 -5.292893e+000
         vertex 6.000000e+000 8.000000e+000 -6.000000e+000
         vertex 6.401924e+000 6.500000e+000 -6.000000e+000
      endloop
   endfacet
   facet normal 9.086632e-001 1.807447e-001 -3.763809e-001
      outer loop
         vertex 1.204224e+001 9.260136e+000 -5.292893e+000
         vertex 1.229289e+001 8.000000e+000 -5.292893e+000
         vertex 1.200000e+001 8.000000e+000 -6.000000e+000
      endloop
   endfacet
   facet normal 2.588190e-001 0.000000e+000 9.659258e-001
      outer loop
         vertex 1.330000e+001 3.200000e+000 -1.339746e-001
         vertex 1.330000e+001 1.280000e+001 -1.339746e-001
         vertex 1.280000e+001 1.280000e+001 0.000000e+000
      endloop
   endfacet
   facet normal 9.659256e-001 0.000000e+000 2.588198e-001
      outer loop
         vertex 1.380000e+001 3.200000e+000 -1.000000e+000
         vertex 1.380000e+001 1.280000e+001 -1.000000e+000
         vertex 1.366603e+001 1.280000e+001 -5.000000e-001
      endloop
   endfacet
   facet normal 7.071072e-001 0.000000e+000 7.071064e-001
      outer loop
         vertex 1.366603e+001 1.280000e+001 -5.000000e-001
         vertex 1.330000e+001 3.200000e+000 -1.339746e-001
         vertex 1.366603e+001 3.200000e+000 -5.000000e-001
      endloop
   endfacet
   facet normal 2.588190e-001 0.000000e+000 9.659258e-001
      outer loop
         vertex 1.330000e+001 3.200000e+000 -1.339746e-001
         vertex 1.280000e+001 1.280000e+001 0.000000e+000
         vertex 1.280000e+001 3.200000e+000 0.000000e+000
      endloop
   endfacet
   facet normal 9.659256e-001 0.000000e+000 2.588198e-001
      outer loop
         vertex 1.380000e+001 3.200000e+000 -1.000000e+000
         vertex 1.366603e+001 1.280000e+001 -5.000000e-001
         vertex 1.366603e+001 3.200000e+000 -5.000000e-001
      endloop
   endfacet
   facet normal 7.071072e-001 0.000000e+000 7.071064e-001
      outer loop
         vertex 1.330000e+001 3.200000e+000 -1.339746e-001
         vertex 1.366603e+001 1.280000e+001 -5.000000e-001
         vertex 1.330000e+001 1.280000e+001 -1.339746e-001
      endloop
   endfacet
   facet normal 0.000000e+000 0.000000e+000 0.000000e+000
      outer loop
         vertex 1.280000e+001 1.280000e+001 0.000000e+000
         vertex 1.280000e+001 1.330000e+001 -1.339746e-001
         vertex 1.280000e+001 1.280000e+001 0.000000e+000
      endloop
   endfacet
   facet normal 2.505635e-001 9.351127e-001 2.505635e-001
      outer loop
         vertex 1.330000e+001 1.366603e+001 -1.000000e+000
         vertex 1.280000e+001 1.380000e+001 -1.000000e+000
         vertex 1.280000e+001 1.366603e+001 -5.000000e-001
      endloop
   endfacet
   facet normal 9.351127e-001 2.505635e-001 2.505635e-001
      outer loop
         vertex 1.366603e+001 1.280000e+001 -5.000000e-001
         vertex 1.380000e+001 1.280000e+001 -1.000000e+000
         vertex 1.366603e+001 1.330000e+001 -1.000000e+000
      endloop
   endfacet
   facet normal 0.000000e+000 -0.000000e+000 0.000000e+000
      outer loop
         vertex 1.280000e+001 1.280000e+001 0.000000e+000
         vertex 1.280000e+001 1.280000e+001 0.000000e+000
         vertex 1.330000e+001 1.280000e+001 -1.339746e-001
      endloop
   endfacet
   facet normal 6.546536e-001 3.779646e-001 6.546536e-001
      outer loop
         vertex 1.280000e+001 1.280000e+001 0.000000e+000
         vertex 1.330000e+001 1.366603e+001 -1.000000e+000
         vertex 1.280000e+001 1.366603e+001 -5.000000e-001
      endloop
   endfacet
   facet normal 0.000000e+000 1.000000e+000 0.000000e+000
      outer loop
         vertex 1.366603e+001 1.280000e+001 -5.000000e-001
         vertex 1.280000e+001 1.280000e+001 0.000000e+000
         vertex 1.330000e+001 1.280000e+001 -1.339746e-001
      endloop
   endfacet
   facet normal 3.779646e-001 6.546536e-001 6.546536e-001
      outer loop
         vertex 1.366603e+001 1.330000e+001 -1.000000e+000
         vertex 1.280000e+001 1.280000e+001 0.000000e+000
         vertex 1.366603e+001 1.280000e+001 -5.000000e-001
      endloop
   endfacet
   facet normal 1.000000e+000 0.000000e+000 0.000000e+000
      outer loop
         vertex 1.280000e+001 1.280000e+001 0.000000e+000
         vertex 1.280000e+001 1.366603e+001 -5.000000e-001
         vertex 1.280000e+001 1.330000e+001 -1.339746e-001
      endloop
   endfacet
   facet normal 5.085899e-001 5.085899e-001 6.947465e-001
      outer loop
         vertex 1.366603e+001 1.330000e+001 -1.000000e+000
         vertex 1.330000e+001 1.366603e+001 -1.000000e+000
         vertex 1.280000e+001 1.280000e+001 0.000000e+000
      endloop
   endfacet
   facet normal -0.000000e+000 2.588190e-001 9.659258e-001
      outer loop
         vertex 1.280000e+001 1.330000e+001 -1.339746e-001
         vertex 3.200000e+000 1.330000e+001 -1.339746e-001
         vertex 3.200000e+000 1.280000e+001 0.000000e+000
      endloop
   endfacet
   facet normal -0.000000e+000 9.659256e-001 2.588198e-001
      outer loop
         vertex 1.280000e+001 1.380000e+001 -1.000000e+000
         vertex 3.200000e+000 1.380000e+001 -1.000000e+000
         vertex 3.200000e+000 1.366603e+001 -5.000000e-001
      endloop
   endfacet
   facet normal 0.000000e+000 7.071072e-001 7.071064e-001
      outer loop
         vertex 3.200000e+000 1.366603e+001 -5.000000e-001
         vertex 1.280000e+001 1.330000e+001 -1.339746e-001
         vertex 1.280000e+001 1.366603e+001 -5.000000e-001
      endloop
   endfacet
   facet normal -0.000000e+000 2.588190e-001 9.659258e-001
      outer loop
         vertex 1.280000e+001 1.330000e+001 -1.339746e-001
         vertex 3.200000e+000 1.280000e+001 0.000000e+000
         vertex 1.280000e+001 1.280000e+001 0.000000e+000
      endloop
   endfacet
   facet normal -0.000000e+000 9.659256e-001 2.588198e-001
      outer loop
         vertex 1.280000e+001 1.380000e+001 -1.000000e+000
         vertex 3.200000e+000 1.366603e+001 -5.000000e-001
         vertex 1.280000e+001 1.366603e+001 -5.000000e-001
      endloop
   endfacet
   facet normal 0.000000e+000 7.071072e-001 7.071064e-001
      outer loop
         vertex 1.280000e+001 1.330000e+001 -1.339746e-001
         vertex 3.200000e+000 1.366603e+001 -5.000000e-001
         vertex 3.200000e+000 1.330000e+001 -1.339746e-001
      endloop
   endfacet
   facet normal 0.000000e+000 0.000000e+000 0.000000e+000
      outer loop
         vertex 3.200000e+000 1.280000e+001 0.000000e+000
         vertex 2.700000e+000 1.280000e+001 -1.339746e-001
         vertex 3.200000e+000 1.280000e+001 0.000000e+000
      endloop
   endfacet
   facet normal -9.351132e-001 2.505627e-001 2.505627e-001
      outer loop
         vertex 2.333975e+000 1.330000e+001 -1.000000e+000
         vertex 2.200000e+000 1.280000e+001 -1.000000e+000
         vertex 2.333975e+000 1.280000e+001 -5.000000e-001
      endloop
   endfacet
   facet normal -2.505635e-001 9.351127e-001 2.505635e-001
      outer loop
         vertex 3.200000e+000 1.366603e+001 -5.000000e-001
         vertex 3.200000e+000 1.380000e+001 -1.000000e+000
         vertex 2.700000e+000 1.366603e+001 -1.000000e+000
      endloop
   endfacet
   facet normal 0.000000e+000 -0.000000e+000 0.000000e+000
      outer loop
         vertex 3.200000e+000 1.280000e+001 0.000000e+000
         vertex 3.200000e+000 1.280000e+001 0.000000e+000
         vertex 3.200000e+000 1.330000e+001 -1.339746e-001
      endloop
   endfacet
   facet normal -3.779645e-001 6.546537e-001 6.546537e-001
      outer loop
         vertex 3.200000e+000 1.280000e+001 0.000000e+000
         vertex 2.333975e+000 1.330000e+001 -1.000000e+000
         vertex 2.333975e+000 1.280000e+001 -5.000000e-001
      endloop
   endfacet
   facet normal -1.000000e+000 0.000000e+000 0.000000e+000
      outer loop
         vertex 3.200000e+000 1.366603e+001 -5.000000e-001
         vertex 3.200000e+000 1.280000e+001 0.000000e+000
         vertex 3.200000e+000 1.330000e+001 -1.339746e-001
      endloop
   endfacet
   facet normal -6.546536e-001 3.779646e-001 6.546536e-001
      outer loop
         vertex 2.700000e+000 1.366603e+001 -1.000000e+000
         vertex 3.200000e+000 1.280000e+001 0.000000e+000
         vertex 3.200000e+000 1.366603e+001 -5.000000e-001
      endloop
   endfacet
   facet normal 0.000000e+000 1.000000e+000 0.000000e+000
      outer loop
         vertex 3.200000e+000 1.280000e+001 0.000000e+000
         vertex 2.333975e+000 1.280000e+001 -5.000000e-001
         vertex 2.700000e+000 1.280000e+001 -1.339746e-001
      endloop
   endfacet
   facet normal -5.085895e-001 5.085902e-001 6.947465e-001
      outer loop
         vertex 2.700000e+000 1.366603e+001 -1.000000e+000
         vertex 2.333975e+000 1.330000e+001 -1.000000e+000
         vertex 3.200000e+000 1.280000e+001 0.000000e+000
      endloop
   endfacet
   facet normal -2.588190e-001 0.000000e+000 9.659258e-001
      outer loop
         vertex 2.700000e+000 1.280000e+001 -1.339746e-001
         vertex 2.700000e+000 3.200000e+000 -1.339746e-001
         vertex 3.200000e+000 3.200000e+000 0.000000e+000
      endloop
   endfacet
   facet normal -9.659258e-001 0.000000e+000 2.588190e-001
      outer loop
         vertex 2.200000e+000 1.280000e+001 -1.000000e+000
         vertex 2.200000e+000 3.200000e+000 -1.000000e+000
         vertex 2.333975e+000 3.200000e+000 -5.000000e-001
      endloop
   endfacet
   facet normal -7.071067e-001 0.000000e+000 7.071068e-001
      outer loop
         vertex 2.700000e+000 3.200000e+000 -1.339746e-001
         vertex 2.700000e+000 1.280000e+001 -1.339746e-001
         vertex 2.333975e+000 1.280000e+001 -5.000000e-001
      endloop
   endfacet
   facet normal -2.588190e-001 0.000000e+000 9.659258e-001
      outer loop
         vertex 2.700000e+000 1.280000e+001 -1.339746e-001
         vertex 3.200000e+000 3.200000e+000 0.000000e+000
         vertex 3.200000e+000 1.280000e+001 0.000000e+000
      endloop
   endfacet
   facet normal -7.071067e-001 0.000000e+000 7.071068e-001
      outer loop
         vertex 2.333975e+000 1.280000e+001 -5.000000e-001
         vertex 2.333975e+000 3.200000e+000 -5.000000e-001
         vertex 2.700000e+000 3.200000e+000 -1.339746e-001
      endloop
   endfacet
   facet normal -9.659258e-001 0.000000e+000 2.588190e-001
      outer loop
         vertex 2.333975e+000 1.280000e+001 -5.000000e-001
         vertex 2.200000e+000 1.280000e+001 -1.000000e+000
         vertex 2.333975e+000 3.200000e+000 -5.000000e-001
      endloop
   endfacet
   facet normal 0.000000e+000 0.000000e+000 0.000000e+000
      outer loop
         vertex 3.200000e+000 3.200000e+000 0.000000e+000
         vertex 3.200000e+000 2.700000e+000 -1.339746e-001
         vertex 3.200000e+000 3.200000e+000 0.000000e+000
      endloop
   endfacet
   facet normal -2.505627e-001 -9.351132e-001 2.505627e-001
      outer loop
         vertex 2.700000e+000 2.333975e+000 -1.000000e+000
         vertex 3.200000e+000 2.200000e+000 -1.000000e+000
         vertex 3.200000e+000 2.333975e+000 -5.000000e-001
      endloop
   endfacet
   facet normal -9.351132e-001 -2.505627e-001 2.505627e-001
      outer loop
         vertex 2.333975e+000 3.200000e+000 -5.000000e-001
         vertex 2.200000e+000 3.200000e+000 -1.000000e+000
         vertex 2.333975e+000 2.700000e+000 -1.000000e+000
      endloop
   endfacet
   facet normal 0.000000e+000 0.000000e+000 -0.000000e+000
      outer loop
         vertex 3.200000e+000 3.200000e+000 0.000000e+000
         vertex 3.200000e+000 3.200000e+000 0.000000e+000
         vertex 2.700000e+000 3.200000e+000 -1.339746e-001
      endloop
   endfacet
   facet normal -6.546537e-001 -3.779645e-001 6.546537e-001
      outer loop
         vertex 3.200000e+000 3.200000e+000 0.000000e+000
         vertex 2.700000e+000 2.333975e+000 -1.000000e+000
         vertex 3.200000e+000 2.333975e+000 -5.000000e-001
      endloop
   endfacet
   facet normal 0.000000e+000 -1.000000e+000 0.000000e+000
      outer loop
         vertex 2.333975e+000 3.200000e+000 -5.000000e-001
         vertex 3.200000e+000 3.200000e+000 0.000000e+000
         vertex 2.700000e+000 3.200000e+000 -1.339746e-001
      endloop
   endfacet
   facet normal -3.779645e-001 -6.546537e-001 6.546537e-001
      outer loop
         vertex 2.333975e+000 2.700000e+000 -1.000000e+000
         vertex 3.200000e+000 3.200000e+000 0.000000e+000
         vertex 2.333975e+000 3.200000e+000 -5.000000e-001
      endloop
   endfacet
   facet normal -1.000000e+000 0.000000e+000 0.000000e+000
      outer loop
         vertex 3.200000e+000 3.200000e+000 0.000000e+000
         vertex 3.200000e+000 2.333975e+000 -5.000000e-001
         vertex 3.200000e+000 2.700000e+000 -1.339746e-001
      endloop
   endfacet
   facet normal -5.085898e-001 -5.085898e-001 6.947466e-001
      outer loop
         vertex 2.333975e+000 2.700000e+000 -1.000000e+000
         vertex 2.700000e+000 2.333975e+000 -1.000000e+000
         vertex 3.200000e+000 3.200000e+000 0.000000e+000
      endloop
   endfacet
   facet normal 0.000000e+000 -2.588190e-001 9.659258e-001
      outer loop
         vertex 3.200000e+000 2.700000e+000 -1.339746e-001
         vertex 1.280000e+001 2.700000e+000 -1.339746e-001
         vertex 1.280000e+001 3.200000e+000 0.000000e+000
      endloop
   endfacet
   facet normal 0.000000e+000 -9.659258e-001 2.588190e-001
      outer loop
         vertex 3.200000e+000 2.200000e+000 -1.000000e+000
         vertex 1.280000e+001 2.200000e+000 -1.000000e+000
         vertex 1.280000e+001 2.333975e+000 -5.000000e-001
      endloop
   endfacet
   facet normal 0.000000e+000 -7.071067e-001 7.071068e-001
      outer loop
         vertex 1.280000e+001 2.333975e+000 -5.000000e-001
         vertex 3.200000e+000 2.700000e+000 -1.339746e-001
         vertex 3.200000e+000 2.333975e+000 -5.000000e-001
      endloop
   endfacet
   facet normal 0.000000e+000 -2.588190e-001 9.659258e-001
      outer loop
         vertex 3.200000e+000 2.700000e+000 -1.339746e-001
         vertex 1.280000e+001 3.200000e+000 0.000000e+000
         vertex 3.200000e+000 3.200000e+000 0.000000e+000
      endloop
   endfacet
   facet normal 0.000000e+000 -9.659258e-001 2.588190e-001
      outer loop
         vertex 3.200000e+000 2.200000e+000 -1.000000e+000
         vertex 1.280000e+001 2.333975e+000 -5.000000e-001
         vertex 3.200000e+000 2.333975e+000 -5.000000e-001
      endloop
   endfacet
   facet normal 0.000000e+000 -7.071067e-001 7.071068e-001
      outer loop
         vertex 3.200000e+000 2.700000e+000 -1.339746e-001
         vertex 1.280000e+001 2.333975e+000 -5.000000e-001
         vertex 1.280000e+001 2.700000e+000 -1.339746e-001
      endloop
   endfacet
   facet normal 0.000000e+000 0.000000e+000 0.000000e+000
      outer loop
         vertex 1.280000e+001 3.200000e+000 0.000000e+000
         vertex 1.330000e+001 3.200000e+000 -1.339746e-001
         vertex 1.280000e+001 3.200000e+000 0.000000e+000
      endloop
   endfacet
   facet normal 9.351127e-001 -2.505635e-001 2.505635e-001
      outer loop
         vertex 1.366603e+001 2.700000e+000 -1.000000e+000
         vertex 1.380000e+001 3.200000e+000 -1.000000e+000
         vertex 1.366603e+001 3.200000e+000 -5.000000e-001
      endloop
   endfacet
   facet normal 2.505627e-001 -9.351132e-001 2.505627e-001
      outer loop
         vertex 1.280000e+001 2.333975e+000 -5.000000e-001
         vertex 1.280000e+001 2.200000e+000 -1.000000e+000
         vertex 1.330000e+001 2.333975e+000 -1.000000e+000
      endloop
   endfacet
   facet normal 0.000000e+000 -0.000000e+000 0.000000e+000
      outer loop
         vertex 1.280000e+001 3.200000e+000 0.000000e+000
         vertex 1.280000e+001 3.200000e+000 0.000000e+000
         vertex 1.280000e+001 2.700000e+000 -1.339746e-001
      endloop
   endfacet
   facet normal 3.779646e-001 -6.546536e-001 6.546536e-001
      outer loop
         vertex 1.280000e+001 3.200000e+000 0.000000e+000
         vertex 1.366603e+001 2.700000e+000 -1.000000e+000
         vertex 1.366603e+001 3.200000e+000 -5.000000e-001
      endloop
   endfacet
   facet normal 1.000000e+000 0.000000e+000 0.000000e+000
      outer loop
         vertex 1.280000e+001 2.333975e+000 -5.000000e-001
         vertex 1.280000e+001 3.200000e+000 0.000000e+000
         vertex 1.280000e+001 2.700000e+000 -1.339746e-001
      endloop
   endfacet
   facet normal 6.546537e-001 -3.779645e-001 6.546537e-001
      outer loop
         vertex 1.330000e+001 2.333975e+000 -1.000000e+000
         vertex 1.280000e+001 3.200000e+000 0.000000e+000
         vertex 1.280000e+001 2.333975e+000 -5.000000e-001
      endloop
   endfacet
   facet normal 0.000000e+000 -1.000000e+000 0.000000e+000
      outer loop
         vertex 1.280000e+001 3.200000e+000 0.000000e+000
         vertex 1.366603e+001 3.200000e+000 -5.000000e-001
         vertex 1.330000e+001 3.200000e+000 -1.339746e-001
      endloop
   endfacet
   facet normal 5.085902e-001 -5.085895e-001 6.947465e-001
      outer loop
         vertex 1.330000e+001 2.333975e+000 -1.000000e+000
         vertex 1.366603e+001 2.700000e+000 -1.000000e+000
         vertex 1.280000e+001 3.200000e+000 0.000000e+000
      endloop
   endfacet
endsolid
