G04 DipTrace 3.0.0.2*
G04 Bottom.gbr*
%MOIN*%
G04 #@! TF.FileFunction,Copper,L2,Bot*
G04 #@! TF.Part,Single*
G04 #@! TA.AperFunction,Conductor*
%ADD14C,0.019685*%
%ADD15C,0.011811*%
%ADD16C,0.03937*%
G04 #@! TA.AperFunction,ViaPad*
%ADD17C,0.07874*%
G04 #@! TA.AperFunction,CopperBalancing*
%ADD18C,0.025*%
G04 #@! TA.AperFunction,Nonconductor*
%ADD20O,0.273228X0.182677*%
G04 #@! TA.AperFunction,ComponentPad*
%ADD29R,0.062992X0.062992*%
%ADD30C,0.062992*%
%ADD31C,0.15748*%
%FSLAX26Y26*%
G04*
G70*
G90*
G75*
G01*
G04 Bottom*
%LPD*%
X1531496Y1527559D2*
D15*
Y1537402D1*
X1592520Y1598425D1*
G02X1639370Y1615354I44157J-48910D01*
G01*
G03X1698697Y1631919I5959J93183D01*
G01*
G03X1732749Y1668808I-97617J124270D01*
G01*
X1793802Y1777601D1*
X1799213Y1779528D1*
X1860236Y1377953D2*
X1767717D1*
X1759843Y1385827D1*
X1860236Y1299213D2*
X1775591D1*
X1759843Y1283465D1*
X895669Y787402D2*
X919291Y811024D1*
X1374206D1*
G03X1417004Y838135I-4438J54342D01*
G01*
X1527139Y992318D1*
X1532843Y1000302D1*
G02X1567717Y1018898I32366J-18700D01*
G01*
X1662130Y1018923D1*
G03X1693273Y1025094I3300J65006D01*
G01*
X1719268Y1041970D1*
X1738818Y1054661D1*
G03X1762756Y1108312I-27726J44537D01*
G01*
G03X1735909Y1163404I-72219J-1106D01*
G01*
X1687008Y1208268D1*
G02X1669291Y1247140I33954J38948D01*
G01*
Y1531496D1*
X895669Y866142D2*
X924803Y837008D1*
X1364567D1*
G03X1390157Y852362I-4343J36241D01*
G01*
X1420835Y898961D1*
G03X1415172Y928957I-17826J12167D01*
G01*
X1275591Y1019685D1*
G02X1294585Y1042618I8847J12006D01*
G01*
X1435419Y951076D1*
G03X1462105Y954801I10561J21794D01*
G01*
X1556718Y1095021D1*
X1531496Y1086614D1*
X1393701Y1377953D2*
Y1447753D1*
G03X1378125Y1480143I-44911J-1657D01*
G01*
X979244Y1879024D1*
G03X954631Y1889764I-22525J-18047D01*
G01*
X895669D1*
X1539370Y1216535D2*
Y1220472D1*
X1481227Y1278615D1*
G02X1464567Y1317324I43089J41485D01*
G01*
Y1397244D1*
G03X1434495Y1467080I-82457J5886D01*
G01*
X933071Y1968504D1*
X895669D1*
X980315Y1578740D2*
D14*
Y1706693D1*
X895669Y1791339D1*
X1007874Y688976D2*
X895669D1*
X1342520Y1724409D2*
D15*
X1318898D1*
X1173228Y1870079D1*
Y2059055D1*
X1401575Y2287402D1*
X1834646D1*
X1838583Y2291339D1*
Y1885827D1*
X1858268D1*
X1535433Y1326772D2*
Y1429134D1*
X1374016Y1590551D1*
Y1692913D1*
X1342520Y1724409D1*
X1860236Y1476378D2*
Y1625197D1*
G02X1985052Y1710043I119448J-41487D01*
G01*
X2124392Y1705319D1*
G02X2211811Y1588765I-25686J-110326D01*
G01*
Y869291D1*
G02X2154724Y747244I-130098J-13522D01*
G01*
G02X1904587Y681102I-249693J438239D01*
G01*
X1015748D1*
X1007874Y688976D1*
X980315Y1578740D2*
Y1531496D1*
X1188976Y1322835D1*
X1359449Y1152362D1*
X1557874D1*
G03X1595669Y1258661I-25677J68999D01*
G01*
X1584344Y1277861D1*
X1535433Y1326772D1*
X895669Y688976D2*
X665354D1*
X433071Y921260D1*
Y1228346D1*
X527559Y1322835D1*
X1188976D1*
X539370Y1137795D2*
D16*
G03X672864Y964567I155301J-18373D01*
G01*
X895669D1*
Y2066929D2*
X731496D1*
G03X539370Y1865703I5388J-197476D01*
G01*
Y1535433D1*
X2000000Y834646D2*
D14*
X1992126D1*
X1852756Y974016D1*
Y1200787D1*
X1860236D1*
X1653543Y1681102D2*
D15*
X1584646D1*
G02X1519291Y1898819I34187J128930D01*
G01*
X1736220Y2165354D1*
X1484252Y1610236D2*
X1480709D1*
Y1654331D1*
G03X1443444Y1748196I-132448J1747D01*
G01*
X1398224Y1807399D1*
X1375197Y1833465D1*
G03X1271654Y1874016I-92846J-84602D01*
G01*
X1992126Y1807087D2*
X1960630Y1803150D1*
X1866339Y1743898D1*
X1821766Y1699325D1*
X1733930Y1622705D1*
X1723228Y1612992D1*
G02X1690945Y1593307I-56900J57001D01*
G01*
X1662598Y1588976D1*
G03X1620472Y1570079I691J-57943D01*
G01*
G03X1602362Y1526753I37695J-41205D01*
G01*
X1605118Y1379134D1*
G03X1615748Y1343307I80407J4367D01*
G01*
X1622047Y1330315D1*
G02X1635875Y1273919I-129221J-61578D01*
G01*
X1637795Y1196322D1*
G03X1685039Y1110236I150608J26648D01*
G01*
X1618110Y929134D2*
X1692913Y929528D1*
G03X1735577Y951325I-3287J59085D01*
G01*
X1787008Y1002756D1*
G03X1807087Y1056293I-60540J53239D01*
G01*
Y1129283D1*
G03X1791929Y1158071I-38011J-1630D01*
G01*
X1721654Y1228346D1*
G02X1696850Y1288929I55128J57939D01*
G01*
Y1411684D1*
G02X1723093Y1462403I85609J-12147D01*
G01*
X1718898Y1456693D1*
X1735055Y1472850D1*
G03X1751969Y1508726I-40863J41189D01*
G01*
X1755906Y1567717D1*
G02X1775591Y1605118I75800J-16014D01*
G01*
X1890551Y1715354D1*
G02X1962907Y1740157I66323J-75538D01*
G01*
X2021654Y1738583D1*
G03X2047678Y1745336I-342J54841D01*
G01*
X2055374Y1751387D1*
G03X2074803Y1862205I-59308J67510D01*
G01*
G03X1964173Y1892520I-70027J-38531D01*
G01*
X1918115Y1843243D1*
G02X1807105Y1848669I-52628J61570D01*
G01*
G03X1656693Y1859843I-83019J-99592D01*
G01*
X1649606Y1854331D1*
X1566929Y1775591D1*
X1966535Y1597244D2*
D17*
Y1079921D1*
X1759843Y1385827D3*
Y1283465D3*
X1393701Y1377953D3*
X1539370Y1216535D3*
X1669291Y1531496D3*
X1531496Y1086614D3*
X1535433Y1326772D3*
X539370Y1535433D3*
Y1137795D3*
X980315Y1578740D3*
X1007874Y688976D3*
X2000000Y834646D3*
X1685039Y1110236D3*
X1838583Y2291339D3*
X1858268Y1885827D3*
X1401575Y2287402D3*
X1271654Y1874016D3*
X1484252Y1610236D3*
X1342520Y1724409D3*
X1799213Y1779528D3*
X1531496Y1527559D3*
X1992126Y1807087D3*
X1566929Y1775591D3*
X1618110Y929134D3*
X1736220Y2165354D3*
X1653543Y1681102D3*
X408701Y2324836D2*
D18*
X466518D1*
X557065D2*
X643032D1*
X904965D2*
X2198842D1*
X2289389D2*
X2347182D1*
X408701Y2299967D2*
X437026D1*
X586606D2*
X643032D1*
X904965D2*
X2169301D1*
X2318881D2*
X2347182D1*
X408701Y2275098D2*
X423354D1*
X600278D2*
X643032D1*
X904965D2*
X2155629D1*
X2332553D2*
X2347182D1*
X605454Y2250230D2*
X643032D1*
X904965D2*
X2150454D1*
X603745Y2225361D2*
X643032D1*
X904965D2*
X1692934D1*
X1779526D2*
X2152163D1*
X408701Y2200492D2*
X429018D1*
X594614D2*
X643032D1*
X904965D2*
X1670229D1*
X1802182D2*
X2161294D1*
X2326889D2*
X2347182D1*
X408701Y2175623D2*
X448794D1*
X574790D2*
X643032D1*
X904965D2*
X1661879D1*
X1810532D2*
X2181069D1*
X2307114D2*
X2347182D1*
X408701Y2150755D2*
X643032D1*
X904965D2*
X1662661D1*
X1809799D2*
X2347182D1*
X408701Y2125886D2*
X643032D1*
X962827D2*
X1651235D1*
X1799594D2*
X2347182D1*
X408701Y2101017D2*
X639565D1*
X962827D2*
X1630971D1*
X1772251D2*
X2347182D1*
X408701Y2076148D2*
X593178D1*
X962827D2*
X1610756D1*
X1716489D2*
X2347182D1*
X408701Y2051280D2*
X562563D1*
X962827D2*
X1590493D1*
X1696274D2*
X2347182D1*
X408701Y2026411D2*
X539370D1*
X962827D2*
X1570229D1*
X1676010D2*
X2347182D1*
X408701Y2001542D2*
X521694D1*
X680503D2*
X837563D1*
X956430D2*
X1550014D1*
X1655796D2*
X2347182D1*
X408701Y1976673D2*
X508266D1*
X642514D2*
X829018D1*
X982651D2*
X1529751D1*
X1635532D2*
X2347182D1*
X408701Y1951804D2*
X498159D1*
X620688D2*
X830678D1*
X1007553D2*
X1509536D1*
X1615317D2*
X2347182D1*
X408701Y1926936D2*
X490883D1*
X606870D2*
X840249D1*
X1032407D2*
X1219497D1*
X1323813D2*
X1489272D1*
X1595053D2*
X1943178D1*
X2066391D2*
X2347182D1*
X408701Y1902067D2*
X486342D1*
X598667D2*
X829653D1*
X1057260D2*
X1202260D1*
X1344516D2*
X1470717D1*
X1574838D2*
X1650747D1*
X1797592D2*
X1917104D1*
X2096616D2*
X2347182D1*
X408701Y1877198D2*
X484340D1*
X595102D2*
X829702D1*
X1082163D2*
X1196645D1*
X1387827D2*
X1457778D1*
X1554575D2*
X1614467D1*
X1836313D2*
X1893862D1*
X2113413D2*
X2347182D1*
X408701Y1852329D2*
X483999D1*
X594712D2*
X840444D1*
X1107016D2*
X1199917D1*
X1413169D2*
X1449331D1*
X1537192D2*
X1588344D1*
X2122983D2*
X2347182D1*
X408701Y1827461D2*
X483999D1*
X594712D2*
X875796D1*
X915561D2*
X973061D1*
X1131870D2*
X1213491D1*
X2127085D2*
X2347182D1*
X408701Y1802592D2*
X483999D1*
X594712D2*
X997915D1*
X1156723D2*
X1256411D1*
X1286899D2*
X1347817D1*
X2126303D2*
X2347182D1*
X408701Y1777723D2*
X483999D1*
X594712D2*
X641469D1*
X903403D2*
X1022768D1*
X1181626D2*
X1369204D1*
X2120737D2*
X2347182D1*
X408701Y1752854D2*
X483999D1*
X594712D2*
X641469D1*
X903403D2*
X1047671D1*
X1206479D2*
X1388198D1*
X2109116D2*
X2347182D1*
X408701Y1727986D2*
X483999D1*
X594712D2*
X641469D1*
X903403D2*
X1072524D1*
X1231333D2*
X1407192D1*
X2089731D2*
X2347182D1*
X408701Y1703117D2*
X483999D1*
X594712D2*
X641469D1*
X903403D2*
X1097378D1*
X1256235D2*
X1426186D1*
X2111118D2*
X2347182D1*
X408701Y1678248D2*
X483999D1*
X594712D2*
X641469D1*
X903501D2*
X1122280D1*
X1281088D2*
X1436342D1*
X2152329D2*
X2347182D1*
X408701Y1653379D2*
X483999D1*
X594712D2*
X641469D1*
X903403D2*
X1147133D1*
X1305942D2*
X1423403D1*
X2173911D2*
X2347182D1*
X408701Y1628510D2*
X483999D1*
X594712D2*
X641469D1*
X903403D2*
X1171987D1*
X1330844D2*
X1411538D1*
X2187241D2*
X2347182D1*
X408701Y1603642D2*
X483999D1*
X594712D2*
X641469D1*
X903403D2*
X1196840D1*
X1355698D2*
X1409487D1*
X1832993D2*
X1850161D1*
X2193149D2*
X2347182D1*
X408701Y1578773D2*
X478676D1*
X600083D2*
X641469D1*
X903403D2*
X1221743D1*
X1380551D2*
X1416372D1*
X1807065D2*
X1852651D1*
X2190659D2*
X2347182D1*
X408701Y1553904D2*
X466713D1*
X612046D2*
X641469D1*
X903403D2*
X1246596D1*
X1405454D2*
X1436049D1*
X1796665D2*
X1859292D1*
X2184018D2*
X2347182D1*
X408701Y1529035D2*
X464614D1*
X614145D2*
X641469D1*
X903403D2*
X1271450D1*
X1430307D2*
X1456460D1*
X1795004D2*
X1875307D1*
X2165903D2*
X2347182D1*
X408701Y1504167D2*
X471401D1*
X607358D2*
X641469D1*
X903403D2*
X1296352D1*
X1793296D2*
X1891469D1*
X2136606D2*
X2347182D1*
X408701Y1479298D2*
X490883D1*
X587827D2*
X1321206D1*
X1787338D2*
X1891469D1*
X2080307D2*
X2347182D1*
X408701Y1454429D2*
X1346059D1*
X1494858D2*
X1562124D1*
X1785971D2*
X1891469D1*
X2041587D2*
X2347182D1*
X408701Y1429560D2*
X1340200D1*
X1503403D2*
X1562612D1*
X2041587D2*
X2347182D1*
X408701Y1404692D2*
X1323745D1*
X1506186D2*
X1563051D1*
X2041587D2*
X2347182D1*
X408701Y1379823D2*
X1318667D1*
X1506137D2*
X1563540D1*
X2041587D2*
X2347182D1*
X408701Y1354954D2*
X1322378D1*
X1506137D2*
X1567006D1*
X2041587D2*
X2347182D1*
X408701Y1330085D2*
X1336684D1*
X1506137D2*
X1576186D1*
X2041587D2*
X2347182D1*
X408701Y1305217D2*
X1424087D1*
X1512387D2*
X1587661D1*
X2041587D2*
X2347182D1*
X408701Y1280348D2*
X1431264D1*
X1576401D2*
X1593569D1*
X2041587D2*
X2347182D1*
X408701Y1255479D2*
X640688D1*
X902622D2*
X1447085D1*
X2041587D2*
X2347182D1*
X408701Y1230610D2*
X640688D1*
X902622D2*
X1465688D1*
X2041587D2*
X2347182D1*
X408701Y1205741D2*
X511440D1*
X567319D2*
X640688D1*
X902622D2*
X1465102D1*
X2041587D2*
X2347182D1*
X408701Y1180873D2*
X478481D1*
X600229D2*
X640688D1*
X902622D2*
X1473696D1*
X2124838D2*
X2347182D1*
X408701Y1156004D2*
X466616D1*
X612094D2*
X640688D1*
X902622D2*
X1496889D1*
X2159848D2*
X2347182D1*
X408701Y1131135D2*
X464614D1*
X614096D2*
X640688D1*
X902622D2*
X1471694D1*
X2178891D2*
X2347182D1*
X408701Y1106266D2*
X471547D1*
X607212D2*
X640688D1*
X902622D2*
X1459145D1*
X2188803D2*
X2347182D1*
X408701Y1081398D2*
X486684D1*
X601059D2*
X640688D1*
X903745D2*
X1260854D1*
X1307944D2*
X1456606D1*
X2193930D2*
X2347182D1*
X408701Y1056529D2*
X492885D1*
X615268D2*
X640688D1*
X902622D2*
X1233999D1*
X1347397D2*
X1462954D1*
X2189145D2*
X2347182D1*
X408701Y1031660D2*
X502504D1*
X902622D2*
X1227944D1*
X1385629D2*
X1464321D1*
X2179917D2*
X2347182D1*
X408701Y1006791D2*
X516030D1*
X962827D2*
X1234047D1*
X1423911D2*
X1447524D1*
X2160971D2*
X2347182D1*
X408701Y981923D2*
X534438D1*
X962827D2*
X1259487D1*
X2126889D2*
X2347182D1*
X408701Y957054D2*
X560610D1*
X962827D2*
X1297719D1*
X1933042D2*
X2009340D1*
X2033969D2*
X2347182D1*
X408701Y932185D2*
X599282D1*
X962827D2*
X1336001D1*
X1774204D2*
X1831264D1*
X1957895D2*
X2347182D1*
X408701Y907316D2*
X828481D1*
X962827D2*
X1374282D1*
X1516928D2*
X1546401D1*
X1747251D2*
X1856118D1*
X1982797D2*
X2347182D1*
X408701Y882448D2*
X830581D1*
X960776D2*
X1360659D1*
X1499204D2*
X1560073D1*
X1676157D2*
X1880971D1*
X2057065D2*
X2347182D1*
X408701Y857579D2*
X829067D1*
X1481430D2*
X1603628D1*
X1632602D2*
X1905874D1*
X2071323D2*
X2347182D1*
X408701Y832710D2*
X837807D1*
X1463657D2*
X1924965D1*
X2075034D2*
X2347182D1*
X408701Y807841D2*
X831801D1*
X1446128D2*
X1930092D1*
X2069907D2*
X2347182D1*
X408701Y782972D2*
X828628D1*
X1416684D2*
X1946547D1*
X2053452D2*
X2347182D1*
X408701Y758104D2*
X835512D1*
X955844D2*
X2347182D1*
X408701Y733235D2*
X857827D1*
X933530D2*
X2347182D1*
X408701Y708366D2*
X2347182D1*
X408701Y683497D2*
X641469D1*
X903403D2*
X2347182D1*
X408701Y658629D2*
X641469D1*
X903403D2*
X2347182D1*
X408701Y633760D2*
X641469D1*
X903403D2*
X2347182D1*
X408701Y608891D2*
X641469D1*
X903403D2*
X2347182D1*
X408701Y584022D2*
X453335D1*
X570297D2*
X641469D1*
X903403D2*
X2185610D1*
X2302573D2*
X2347182D1*
X408701Y559154D2*
X431167D1*
X592465D2*
X641469D1*
X903452D2*
X2163442D1*
X2324741D2*
X2347182D1*
X602866Y534285D2*
X641469D1*
X903403D2*
X2153042D1*
X605649Y509416D2*
X641469D1*
X903403D2*
X2150258D1*
X408701Y484547D2*
X422085D1*
X601499D2*
X641469D1*
X903403D2*
X2154409D1*
X2333823D2*
X2347238D1*
X408701Y459678D2*
X434292D1*
X589340D2*
X641469D1*
X903403D2*
X2166567D1*
X2321616D2*
X2347182D1*
X408701Y434810D2*
X460122D1*
X563510D2*
X641469D1*
X903403D2*
X2192397D1*
X2295786D2*
X2347182D1*
X408701Y409941D2*
X641469D1*
X903403D2*
X2347182D1*
X2335184Y504642D2*
X2332941Y490481D1*
X2328511Y476845D1*
X2322001Y464070D1*
X2313574Y452470D1*
X2303435Y442332D1*
X2291836Y433904D1*
X2279061Y427395D1*
X2265425Y422964D1*
X2251263Y420721D1*
X2236926D1*
X2222764Y422964D1*
X2209128Y427395D1*
X2196353Y433904D1*
X2184754Y442332D1*
X2174615Y452470D1*
X2166188Y464070D1*
X2159678Y476845D1*
X2155248Y490481D1*
X2153005Y504642D1*
Y518980D1*
X2155248Y533141D1*
X2159678Y546777D1*
X2166188Y559552D1*
X2174615Y571152D1*
X2184754Y581290D1*
X2196353Y589718D1*
X2209128Y596227D1*
X2222764Y600658D1*
X2236926Y602901D1*
X2251263D1*
X2265425Y600658D1*
X2279061Y596227D1*
X2291836Y589718D1*
X2303435Y581290D1*
X2313574Y571152D1*
X2322001Y559552D1*
X2328511Y546777D1*
X2332941Y533141D1*
X2335184Y518980D1*
Y504642D1*
X602901Y2236926D2*
X600658Y2222764D1*
X596227Y2209128D1*
X589718Y2196353D1*
X581290Y2184754D1*
X571152Y2174615D1*
X559552Y2166188D1*
X546777Y2159678D1*
X533141Y2155248D1*
X518980Y2153005D1*
X504642D1*
X490481Y2155248D1*
X476845Y2159678D1*
X464070Y2166188D1*
X452470Y2174615D1*
X442332Y2184754D1*
X433904Y2196353D1*
X427395Y2209128D1*
X422964Y2222764D1*
X420721Y2236926D1*
Y2251263D1*
X422964Y2265425D1*
X427395Y2279061D1*
X433904Y2291836D1*
X442332Y2303435D1*
X452470Y2313574D1*
X464070Y2322001D1*
X476845Y2328511D1*
X490481Y2332941D1*
X504642Y2335184D1*
X518980D1*
X533141Y2332941D1*
X546777Y2328511D1*
X559552Y2322001D1*
X571152Y2313574D1*
X581290Y2303435D1*
X589718Y2291836D1*
X596227Y2279061D1*
X600658Y2265425D1*
X602901Y2251263D1*
Y2236926D1*
X2335184D2*
X2332941Y2222764D1*
X2328511Y2209128D1*
X2322001Y2196353D1*
X2313574Y2184754D1*
X2303435Y2174615D1*
X2291836Y2166188D1*
X2279061Y2159678D1*
X2265425Y2155248D1*
X2251263Y2153005D1*
X2236926D1*
X2222764Y2155248D1*
X2209128Y2159678D1*
X2196353Y2166188D1*
X2184754Y2174615D1*
X2174615Y2184754D1*
X2166188Y2196353D1*
X2159678Y2209128D1*
X2155248Y2222764D1*
X2153005Y2236926D1*
Y2251263D1*
X2155248Y2265425D1*
X2159678Y2279061D1*
X2166188Y2291836D1*
X2174615Y2303435D1*
X2184754Y2313574D1*
X2196353Y2322001D1*
X2209128Y2328511D1*
X2222764Y2332941D1*
X2236926Y2335184D1*
X2251263D1*
X2265425Y2332941D1*
X2279061Y2328511D1*
X2291836Y2322001D1*
X2303435Y2313574D1*
X2313574Y2303435D1*
X2322001Y2291836D1*
X2328511Y2279061D1*
X2332941Y2265425D1*
X2335184Y2251263D1*
Y2236926D1*
X602901Y504642D2*
X600658Y490481D1*
X596227Y476845D1*
X589718Y464070D1*
X581290Y452470D1*
X571152Y442332D1*
X559552Y433904D1*
X546777Y427395D1*
X533141Y422964D1*
X518980Y420721D1*
X504642D1*
X490481Y422964D1*
X476845Y427395D1*
X464070Y433904D1*
X452470Y442332D1*
X442332Y452470D1*
X433904Y464070D1*
X427395Y476845D1*
X422964Y490481D1*
X420721Y504642D1*
Y518980D1*
X422964Y533141D1*
X427395Y546777D1*
X433904Y559552D1*
X442332Y571152D1*
X452470Y581290D1*
X464070Y589718D1*
X476845Y596227D1*
X490481Y600658D1*
X504642Y602901D1*
X518980D1*
X533141Y600658D1*
X546777Y596227D1*
X559552Y589718D1*
X571152Y581290D1*
X581290Y571152D1*
X589718Y559552D1*
X596227Y546777D1*
X600658Y533141D1*
X602901Y518980D1*
Y504642D1*
X900080Y1029248D2*
X960350D1*
Y899886D1*
X950829D1*
X955427Y890894D1*
X958563Y881241D1*
X959575Y876083D1*
X1359032Y876099D1*
X1378691Y906035D1*
X1251495Y988920D1*
X1247409Y992381D1*
X1241746Y998643D1*
X1238537Y1003240D1*
X1234676Y1010749D1*
X1232759Y1016017D1*
X1230962Y1024267D1*
X1230466Y1029850D1*
X1230854Y1038285D1*
X1231812Y1043808D1*
X1234358Y1051859D1*
X1236706Y1056949D1*
X1241239Y1064072D1*
X1244818Y1068387D1*
X1251032Y1074103D1*
X1255602Y1077350D1*
X1263078Y1081274D1*
X1268329Y1083235D1*
X1276564Y1085101D1*
X1282143Y1085644D1*
X1290581Y1085328D1*
X1296112Y1084416D1*
X1304206Y1081928D1*
X1309293Y1079633D1*
X1316455Y1075160D1*
X1441287Y993884D1*
X1474026Y1042357D1*
X1469633Y1048704D1*
X1464464Y1058849D1*
X1460946Y1069677D1*
X1459165Y1080922D1*
Y1092307D1*
X1460946Y1103552D1*
X1464464Y1114380D1*
X1469633Y1124524D1*
X1476325Y1133735D1*
X1484375Y1141786D1*
X1493586Y1148478D1*
X1503427Y1153507D1*
X1496723Y1157837D1*
X1488066Y1165231D1*
X1480672Y1173889D1*
X1474723Y1183596D1*
X1470366Y1194115D1*
X1467708Y1205185D1*
X1466815Y1216535D1*
X1467708Y1227886D1*
X1469321Y1235251D1*
X1451491Y1253241D1*
X1444011Y1262440D1*
X1437686Y1272468D1*
X1432607Y1283181D1*
X1428847Y1294425D1*
X1426460Y1306039D1*
X1425732Y1312846D1*
X1416122Y1308949D1*
X1405051Y1306291D1*
X1393701Y1305398D1*
X1382351Y1306291D1*
X1371280Y1308949D1*
X1360761Y1313306D1*
X1351054Y1319254D1*
X1342397Y1326649D1*
X1335002Y1335306D1*
X1329054Y1345013D1*
X1324697Y1355532D1*
X1322039Y1366603D1*
X1321146Y1377953D1*
X1322039Y1389303D1*
X1324697Y1400374D1*
X1329054Y1410892D1*
X1335002Y1420600D1*
X1342397Y1429257D1*
X1351054Y1436651D1*
X1354625Y1439037D1*
X1354610Y1445843D1*
X1352100Y1450903D1*
X952298Y1850688D1*
X944853Y1847757D1*
X937676Y1840580D1*
X929465Y1834614D1*
X920422Y1830006D1*
X910769Y1826870D1*
X900744Y1825282D1*
X890594D1*
X880570Y1826870D1*
X870917Y1830006D1*
X861874Y1834614D1*
X853662Y1840580D1*
X846485Y1847757D1*
X840520Y1855968D1*
X835912Y1865011D1*
X832775Y1874664D1*
X831188Y1884689D1*
Y1894839D1*
X832775Y1904863D1*
X835912Y1914516D1*
X840520Y1923560D1*
X844385Y1929107D1*
X840520Y1934708D1*
X835912Y1943752D1*
X832775Y1953404D1*
X831188Y1963429D1*
Y1973579D1*
X832775Y1983603D1*
X835912Y1993256D1*
X840491Y2002248D1*
X830988D1*
Y2014113D1*
X733316Y2014059D1*
X718745Y2012933D1*
X704842Y2010481D1*
X691244Y2006685D1*
X678081Y2001581D1*
X665479Y1995218D1*
X653557Y1987657D1*
X642429Y1978969D1*
X632201Y1969238D1*
X622970Y1958556D1*
X614826Y1947025D1*
X607844Y1934754D1*
X602092Y1921861D1*
X597624Y1908469D1*
X594484Y1894705D1*
X592700Y1880701D1*
X592240Y1853203D1*
Y1585088D1*
X598068Y1578080D1*
X604017Y1568372D1*
X608374Y1557854D1*
X611032Y1546783D1*
X611925Y1535433D1*
X611032Y1524083D1*
X608374Y1513012D1*
X604017Y1502494D1*
X598068Y1492786D1*
X590674Y1484129D1*
X582017Y1476735D1*
X572309Y1470786D1*
X561791Y1466429D1*
X550720Y1463771D1*
X539370Y1462878D1*
X528020Y1463771D1*
X516949Y1466429D1*
X506431Y1470786D1*
X496723Y1476735D1*
X488066Y1484129D1*
X480672Y1492786D1*
X474723Y1502494D1*
X470366Y1513012D1*
X467708Y1524083D1*
X466815Y1535433D1*
X467708Y1546783D1*
X470366Y1557854D1*
X474723Y1568372D1*
X480672Y1578080D1*
X486510Y1585054D1*
X486523Y1867281D1*
X487505Y1891702D1*
X490862Y1915911D1*
X496564Y1939677D1*
X504556Y1962774D1*
X514762Y1984981D1*
X527084Y2006088D1*
X541406Y2025893D1*
X557590Y2044207D1*
X575483Y2060856D1*
X594914Y2075680D1*
X615698Y2088540D1*
X637637Y2099312D1*
X645515Y2102359D1*
X645555Y2349762D1*
X406201Y2349705D1*
Y406201D1*
X643945D1*
X643980Y684760D1*
X900902D1*
X900950Y576892D1*
X901295Y568110D1*
X900902Y547260D1*
Y406195D1*
X2349705Y406201D1*
Y2349705D1*
X902488D1*
X902476Y2131650D1*
X960350Y2131610D1*
Y2002248D1*
X952782D1*
X958458Y1998229D1*
X1040262Y1916596D1*
X1462010Y1494847D1*
X1466849Y1494620D1*
X1462492Y1505138D1*
X1459834Y1516209D1*
X1458941Y1527559D1*
X1459834Y1538909D1*
X1460394Y1541725D1*
X1451313Y1545589D1*
X1441605Y1551538D1*
X1432948Y1558932D1*
X1425554Y1567589D1*
X1419605Y1577297D1*
X1415248Y1587815D1*
X1412590Y1598886D1*
X1411697Y1610236D1*
X1412590Y1621586D1*
X1415248Y1632657D1*
X1419605Y1643176D1*
X1425554Y1652883D1*
X1432948Y1661540D1*
X1440679Y1668204D1*
X1438684Y1679036D1*
X1434932Y1690597D1*
X1429709Y1701571D1*
X1423103Y1711774D1*
X1412378Y1724468D1*
X1367870Y1782740D1*
X1346837Y1806524D1*
X1338014Y1814997D1*
X1328897Y1821702D1*
X1322958Y1822712D1*
X1314300Y1815317D1*
X1304593Y1809369D1*
X1294074Y1805012D1*
X1283004Y1802354D1*
X1271654Y1801461D1*
X1260303Y1802354D1*
X1249233Y1805012D1*
X1238714Y1809369D1*
X1229007Y1815317D1*
X1220349Y1822712D1*
X1212955Y1831369D1*
X1207006Y1841076D1*
X1202650Y1851595D1*
X1199992Y1862666D1*
X1199098Y1874016D1*
X1199992Y1885366D1*
X1202650Y1896437D1*
X1207006Y1906955D1*
X1212955Y1916663D1*
X1220349Y1925320D1*
X1229007Y1932714D1*
X1238714Y1938663D1*
X1249233Y1943020D1*
X1260303Y1945678D1*
X1271654Y1946571D1*
X1283004Y1945678D1*
X1294074Y1943020D1*
X1304593Y1938663D1*
X1314300Y1932714D1*
X1322958Y1925320D1*
X1330352Y1916663D1*
X1336301Y1906955D1*
X1337782Y1903742D1*
X1351859Y1898174D1*
X1371930Y1887048D1*
X1389214Y1874161D1*
X1404493Y1859346D1*
X1429290Y1831127D1*
X1446510Y1808582D1*
X1447020Y1825107D1*
X1450682Y1848318D1*
X1456915Y1869388D1*
X1465777Y1889494D1*
X1477123Y1908310D1*
X1496864Y1933189D1*
X1667216Y2142934D1*
X1664559Y2154004D1*
X1663665Y2165354D1*
X1664559Y2176704D1*
X1667216Y2187775D1*
X1671573Y2198294D1*
X1677522Y2208001D1*
X1684916Y2216659D1*
X1693574Y2224053D1*
X1703281Y2230001D1*
X1713800Y2234358D1*
X1724870Y2237016D1*
X1736220Y2237909D1*
X1747571Y2237016D1*
X1758641Y2234358D1*
X1769160Y2230001D1*
X1778867Y2224053D1*
X1787525Y2216659D1*
X1794919Y2208001D1*
X1800868Y2198294D1*
X1805224Y2187775D1*
X1807882Y2176704D1*
X1808776Y2165354D1*
X1807882Y2154004D1*
X1805224Y2142934D1*
X1800868Y2132415D1*
X1794919Y2122708D1*
X1787525Y2114050D1*
X1778867Y2106656D1*
X1769160Y2100707D1*
X1758641Y2096350D1*
X1747571Y2093692D1*
X1736220Y2092799D1*
X1727986Y2093324D1*
X1541068Y1863231D1*
X1534935Y1852911D1*
X1530164Y1841895D1*
X1533990Y1840238D1*
X1544508Y1844595D1*
X1555579Y1847252D1*
X1566929Y1848146D1*
X1578279Y1847252D1*
X1584231Y1846038D1*
X1625607Y1885187D1*
X1635189Y1892487D1*
X1654595Y1902773D1*
X1659539Y1904914D1*
X1679321Y1911777D1*
X1702119Y1916387D1*
X1725333Y1917818D1*
X1748524Y1916044D1*
X1771251Y1911097D1*
X1793082Y1903073D1*
X1813602Y1892123D1*
X1832695Y1878203D1*
X1839306Y1872181D1*
X1847344Y1867177D1*
X1853199Y1864822D1*
X1862517Y1863138D1*
X1868828Y1863110D1*
X1878109Y1864984D1*
X1883985Y1867287D1*
X1891951Y1872479D1*
X1937797Y1921371D1*
X1942635Y1925142D1*
X1956120Y1932228D1*
X1960920Y1934254D1*
X1973927Y1938622D1*
X1989488Y1941704D1*
X2005321Y1942689D1*
X2021144Y1941559D1*
X2036676Y1938335D1*
X2051642Y1933074D1*
X2065775Y1925870D1*
X2078824Y1916850D1*
X2090558Y1906174D1*
X2100768Y1894033D1*
X2109273Y1880642D1*
X2116555Y1864839D1*
X2121650Y1848168D1*
X2124451Y1830963D1*
X2124905Y1813537D1*
X2123005Y1796209D1*
X2118785Y1779296D1*
X2112323Y1763106D1*
X2103736Y1747936D1*
X2093181Y1734063D1*
X2080561Y1721509D1*
X2072713Y1715293D1*
X2115086Y1700827D1*
X2120398Y1697938D1*
X2152729Y1676199D1*
X2158243Y1670681D1*
X2179472Y1642664D1*
X2182899Y1635656D1*
X2190559Y1604106D1*
X2191453Y1596357D1*
X2190512Y1588613D1*
X2183173Y1558072D1*
X2179928Y1550978D1*
X2158571Y1522654D1*
X2153146Y1517049D1*
X2120398Y1494975D1*
X2113448Y1491431D1*
X2072073Y1477433D1*
X2067364Y1476588D1*
X2039056Y1473590D1*
X2039091Y1203543D1*
X2069943Y1200201D1*
X2074571Y1198989D1*
X2115086Y1185079D1*
X2120398Y1182190D1*
X2152729Y1160451D1*
X2158243Y1154933D1*
X2179472Y1126916D1*
X2182899Y1119908D1*
X2190559Y1088358D1*
X2191453Y1080609D1*
X2190512Y1072865D1*
X2183173Y1042324D1*
X2179928Y1035230D1*
X2158571Y1006906D1*
X2153146Y1001301D1*
X2120398Y979227D1*
X2113448Y975683D1*
X2072073Y961685D1*
X2067364Y960840D1*
X2022548Y956197D1*
X2018159Y956369D1*
X1973364Y961216D1*
X1968736Y962428D1*
X1947706Y969592D1*
X1931949Y973474D1*
X1923704Y976516D1*
X1915722Y980195D1*
X1908055Y984489D1*
X1895760Y993304D1*
X1900859Y986763D1*
X1982583Y905039D1*
X1988650Y906308D1*
X2000000Y907201D1*
X2011350Y906308D1*
X2022421Y903650D1*
X2032939Y899293D1*
X2042647Y893344D1*
X2051304Y885950D1*
X2058698Y877292D1*
X2064647Y867585D1*
X2069004Y857066D1*
X2071662Y845996D1*
X2072555Y834646D1*
X2071662Y823296D1*
X2069004Y812225D1*
X2064647Y801706D1*
X2058698Y791999D1*
X2051304Y783341D1*
X2042647Y775947D1*
X2032939Y769999D1*
X2022421Y765642D1*
X2011350Y762984D1*
X2000000Y762091D1*
X1988650Y762984D1*
X1977579Y765642D1*
X1967061Y769999D1*
X1957353Y775947D1*
X1948696Y783341D1*
X1941302Y791999D1*
X1935353Y801706D1*
X1930996Y812225D1*
X1928338Y823296D1*
X1927445Y834646D1*
X1927591Y838359D1*
X1820037Y946072D1*
X1816069Y951534D1*
X1813004Y957550D1*
X1810917Y963971D1*
X1810213Y967665D1*
X1805810Y966276D1*
X1756362Y916484D1*
X1745731Y907937D1*
X1734019Y900945D1*
X1721451Y895643D1*
X1708270Y892131D1*
X1694359Y890477D1*
X1679399Y890365D1*
X1673282Y882013D1*
X1665231Y873963D1*
X1656020Y867270D1*
X1645876Y862102D1*
X1635048Y858583D1*
X1623803Y856802D1*
X1612418D1*
X1601173Y858583D1*
X1590345Y862102D1*
X1580200Y867270D1*
X1570989Y873963D1*
X1562939Y882013D1*
X1556247Y891224D1*
X1551078Y901368D1*
X1547560Y912196D1*
X1545779Y923441D1*
Y934826D1*
X1547560Y946072D1*
X1551078Y956899D1*
X1553286Y961689D1*
X1443435Y807604D1*
X1434785Y798016D1*
X1424898Y789709D1*
X1413963Y782842D1*
X1402186Y777545D1*
X1389792Y773920D1*
X1377017Y772034D1*
X1261706Y771933D1*
X958435D1*
X955427Y762649D1*
X950819Y753606D1*
X944853Y745395D1*
X937676Y738218D1*
X929465Y732252D1*
X920422Y727644D1*
X910769Y724508D1*
X900744Y722920D1*
X890594D1*
X880570Y724508D1*
X870917Y727644D1*
X861874Y732252D1*
X853662Y738218D1*
X846485Y745395D1*
X840520Y753606D1*
X835912Y762649D1*
X832775Y772302D1*
X831188Y782327D1*
Y792476D1*
X832775Y802501D1*
X835912Y812154D1*
X840520Y821197D1*
X844385Y826744D1*
X840520Y832346D1*
X835912Y841389D1*
X832775Y851042D1*
X831188Y861067D1*
Y871217D1*
X832775Y881241D1*
X835912Y890894D1*
X840491Y899886D1*
X830988D1*
Y911751D1*
X668715Y911860D1*
X662387Y912745D1*
X639750Y917532D1*
X616146Y925490D1*
X593654Y936197D1*
X572595Y949501D1*
X553265Y965213D1*
X535941Y983112D1*
X520866Y1002942D1*
X508254Y1024423D1*
X498285Y1047251D1*
X491100Y1071102D1*
X488066Y1086491D1*
X480672Y1095148D1*
X474723Y1104856D1*
X470366Y1115375D1*
X467708Y1126445D1*
X466815Y1137795D1*
X467708Y1149145D1*
X470366Y1160216D1*
X474723Y1170735D1*
X480672Y1180442D1*
X488066Y1189099D1*
X496723Y1196494D1*
X506431Y1202442D1*
X516949Y1206799D1*
X528020Y1209457D1*
X539370Y1210350D1*
X550720Y1209457D1*
X561791Y1206799D1*
X572309Y1202442D1*
X582017Y1196494D1*
X590674Y1189099D1*
X598068Y1180442D1*
X604017Y1170735D1*
X608374Y1160216D1*
X611032Y1149145D1*
X611925Y1137795D1*
X611032Y1126445D1*
X608374Y1115375D1*
X604017Y1104856D1*
X598068Y1095148D1*
X595217Y1091531D1*
X597871Y1082994D1*
X602887Y1071748D1*
X609203Y1061178D1*
X616731Y1051434D1*
X625363Y1042653D1*
X634978Y1034960D1*
X643193Y1037976D1*
Y1278067D1*
X900114D1*
Y1101651D1*
X901295Y1085433D1*
X900115Y1069595D1*
X900114Y1029288D1*
X900950Y1661691D2*
X900902Y1480594D1*
X643980D1*
Y1783185D1*
X900902D1*
X900950Y1679254D1*
X901295Y1670472D1*
X900950Y1661691D1*
X1819055Y1427788D2*
X1826440Y1433102D1*
X1835484Y1437710D1*
X1845137Y1440847D1*
X1855161Y1442434D1*
X1865311D1*
X1875336Y1440847D1*
X1884989Y1437710D1*
X1893980Y1433132D1*
X1893846Y1512136D1*
X1887392Y1518101D1*
X1881427Y1524554D1*
X1875986Y1531456D1*
X1871104Y1538763D1*
X1867296Y1545563D1*
X1862510Y1552493D1*
X1859643Y1559748D1*
X1852247Y1591364D1*
X1851964Y1599160D1*
X1852748Y1604106D1*
X1859142Y1631098D1*
X1804189Y1578382D1*
X1800537Y1573954D1*
X1797770Y1569450D1*
X1795649Y1564608D1*
X1794077Y1552641D1*
X1790550Y1502441D1*
X1788638Y1491449D1*
X1784578Y1478533D1*
X1778761Y1466307D1*
X1773270Y1457819D1*
X1782263Y1454831D1*
X1792782Y1450474D1*
X1802489Y1444525D1*
X1811147Y1437131D1*
X1818541Y1428474D1*
X1818998Y1427789D1*
X1495630Y1446839D2*
X1497763Y1440999D1*
X1501475Y1427142D1*
X1500551Y1430901D1*
X1501842Y1424905D1*
X1503691Y1408405D1*
X1501842Y1424905D1*
X1503632Y1410671D1*
X1503658Y1322244D1*
X1507749Y1307756D1*
X1506512Y1309620D1*
X1504531Y1314153D1*
X1503961Y1316564D1*
X1503658Y1322244D1*
Y1319265D1*
X1509870Y1305255D1*
X1527081Y1288011D1*
X1533677Y1288867D1*
X1545063D1*
X1556308Y1287086D1*
X1567136Y1283568D1*
X1577280Y1278399D1*
X1586491Y1271707D1*
X1594541Y1263656D1*
X1597118Y1260388D1*
X1596084Y1280216D1*
X1593814Y1293616D1*
X1590751Y1303782D1*
X1582673Y1321922D1*
X1574769Y1338441D1*
X1570264Y1351688D1*
X1567337Y1365371D1*
X1566034Y1378404D1*
X1564435Y1462912D1*
X1553917Y1458555D1*
X1542846Y1455897D1*
X1531496Y1455004D1*
X1520146Y1455897D1*
X1509075Y1458555D1*
X1498557Y1462912D1*
X1488849Y1468861D1*
X1480192Y1476255D1*
X1472798Y1484912D1*
X1466849Y1494620D1*
X1461421Y1495419D1*
X1471640Y1485646D1*
X1468897Y1488379D1*
X1473115Y1483925D1*
X1482038Y1472692D1*
X1479693Y1475773D1*
X1483265Y1470786D1*
X1491533Y1456388D1*
X1497096Y1443165D1*
X1497987Y1440141D1*
X1491871Y1455569D1*
X1483265Y1470786D1*
X1490576Y1458443D1*
X1491843Y1455647D1*
D29*
X895669Y964567D3*
D30*
Y866142D3*
Y787402D3*
Y688976D3*
D31*
X789370Y1085433D3*
Y568110D3*
D29*
X895669Y2066929D3*
D30*
Y1968504D3*
Y1889764D3*
Y1791339D3*
D31*
X789370Y2187795D3*
Y1670472D3*
D29*
X1860236Y1200787D3*
D30*
Y1299213D3*
Y1377953D3*
Y1476378D3*
D31*
X1966535Y1079921D3*
Y1597244D3*
G36*
X677165Y651575D2*
X867717D1*
Y415354D1*
X677165D1*
Y651575D1*
G37*
G36*
X676378Y1244882D2*
X866929D1*
Y1008661D1*
X676378D1*
Y1244882D1*
G37*
G36*
X677165Y1750000D2*
X867717D1*
Y1513780D1*
X677165D1*
Y1750000D1*
G37*
G36*
X678740Y2347244D2*
X869291D1*
Y2111024D1*
X678740D1*
Y2347244D1*
G37*
D20*
X2021654Y1596457D3*
Y1080709D3*
M02*
