G04 DipTrace 3.0.0.2*
G04 Bottom.gbr*
%MOIN*%
G04 #@! TF.FileFunction,Copper,L2,Bot*
G04 #@! TF.Part,Single*
G04 #@! TA.AperFunction,Conductor*
%ADD14C,0.011811*%
%ADD16C,0.03937*%
%ADD17C,0.059055*%
G04 #@! TA.AperFunction,CopperBalancing*
%ADD19C,0.025*%
G04 #@! TA.AperFunction,ComponentPad*
%ADD24R,0.062992X0.062992*%
%ADD25C,0.062992*%
%ADD26C,0.125984*%
G04 #@! TA.AperFunction,ViaPad*
%ADD37C,0.07874*%
%FSLAX26Y26*%
G04*
G70*
G90*
G75*
G01*
G04 Bottom*
%LPD*%
X789370Y1670472D2*
D14*
Y1085433D1*
Y2187795D2*
Y1820866D1*
X818898Y1791339D1*
X895669D1*
X789370Y1085433D2*
Y568110D1*
X895669Y688976D2*
Y674409D1*
X789370Y568110D1*
X895669Y1791339D2*
Y1776772D1*
X789370Y1670472D1*
X1086614Y933071D2*
Y964567D1*
X965748Y1085433D1*
X789370D1*
X1988189Y1685039D2*
X1736220D1*
X1196850D1*
X1090551Y1791339D1*
X895669D1*
X1736220Y1881890D2*
Y1685039D1*
X1507874Y1090551D2*
Y1015748D1*
X1574803Y948819D1*
Y893701D1*
X1692913Y775591D1*
X1822835D1*
X1854331Y807087D1*
Y1011811D1*
X1748031Y1118110D1*
X1338583Y1460630D2*
X1346457Y1452756D1*
Y1136648D1*
X1254690Y1044882D1*
X1266142D1*
X1279528Y1031496D1*
X1511811Y1389764D2*
Y1488189D1*
G03X1397638Y1519685I-72835J-41339D01*
G01*
X1338583Y1460630D1*
X1437008Y1448819D2*
X1444882D1*
X1370079Y1374016D1*
Y1039370D1*
G02X1252513Y966361I-84101J4265D01*
G01*
X1171631Y1047244D1*
X1181102D1*
X2360236Y1597244D2*
D16*
Y1582677D1*
X2253937Y1476378D1*
X2360236Y1079921D2*
D17*
Y1597244D1*
X1240157Y748031D2*
D14*
X1358268D1*
X1566929Y539370D1*
X2023622D1*
X2177165Y692913D1*
Y1870079D1*
X2259843Y1952756D1*
G03X2137795Y2181102I-106299J89974D01*
G01*
X1452756Y944882D2*
Y925197D1*
X1641732Y736220D1*
X1968504D1*
X2082677Y850394D1*
Y1893701D1*
X1905512Y2070866D1*
Y2196850D1*
X1889764Y2212598D1*
X1807087Y618110D2*
X2000000D1*
X2129921Y748031D1*
Y1952756D1*
X2173228Y1996063D1*
X1185039Y1511811D2*
X1186993Y1509857D1*
X1081369Y1108282D1*
G03X1200500Y917323I210858J-1095D01*
G01*
X1322835D1*
X1330709D1*
X1629921Y618110D1*
X1704724D1*
X1515748Y1283465D2*
X1510483D1*
X1435068Y1208050D1*
X1425197Y1019685D1*
X1322835Y917323D1*
X1287402Y1590551D2*
X1480315D1*
X1614173Y1456693D1*
Y1228346D1*
X1574803Y1188976D1*
X1582677Y1181102D1*
Y1027559D1*
X1755906Y854331D1*
X1692913Y1255906D2*
X1690445Y1240448D1*
X1962098Y1512101D1*
X2000000Y1539370D1*
D37*
X1748031Y1118110D3*
X1507874Y1090551D3*
X1086614Y933071D3*
X1988189Y1685039D3*
X1736220Y1881890D3*
X1704724Y618110D3*
X1755906Y854331D3*
X1287402Y1590551D3*
X1185039Y1511811D3*
X1515748Y1283465D3*
X1574803Y1188976D3*
X2137795Y2181102D3*
X1889764Y2212598D3*
X1240157Y748031D3*
X1452756Y944882D3*
X1692913Y1255906D3*
X2000000Y1539370D3*
X1181102Y1047244D3*
X1279528Y1031496D3*
X1437008Y1448819D3*
X1338583Y1460630D3*
X1511811Y1389764D3*
X1807087Y618110D3*
X2173228Y1996063D3*
X408701Y2324836D2*
D19*
X466518D1*
X557066D2*
X2592543D1*
X2683091D2*
X2740883D1*
X408701Y2299967D2*
X437026D1*
X586606D2*
X2563003D1*
X2712583D2*
X2740883D1*
X408701Y2275098D2*
X423354D1*
X600278D2*
X1850406D1*
X1929135D2*
X2549331D1*
X2726255D2*
X2740928D1*
X605454Y2250230D2*
X1825210D1*
X1954282D2*
X2113247D1*
X2162339D2*
X2544106D1*
X603744Y2225361D2*
X1815835D1*
X1963706D2*
X2077798D1*
X2197787D2*
X2545864D1*
X408701Y2200492D2*
X429018D1*
X594614D2*
X1815738D1*
X1963803D2*
X2065395D1*
X2238559D2*
X2554995D1*
X2720591D2*
X2740883D1*
X408701Y2175623D2*
X448794D1*
X574790D2*
X1824819D1*
X1954672D2*
X2062954D1*
X2274594D2*
X2574770D1*
X2700815D2*
X2740883D1*
X408701Y2150755D2*
X1849331D1*
X1947104D2*
X2069399D1*
X2297739D2*
X2740883D1*
X408701Y2125886D2*
X828482D1*
X962827D2*
X1863930D1*
X1947104D2*
X2088247D1*
X2187339D2*
X2206459D1*
X2313803D2*
X2740883D1*
X408701Y2101017D2*
X828482D1*
X962827D2*
X1863930D1*
X1947104D2*
X2232387D1*
X2324448D2*
X2740883D1*
X408701Y2076148D2*
X828482D1*
X962827D2*
X1863930D1*
X1957992D2*
X2245278D1*
X2330991D2*
X2740883D1*
X408701Y2051280D2*
X828482D1*
X962827D2*
X1869203D1*
X1982846D2*
X2123647D1*
X2222787D2*
X2250747D1*
X2333920D2*
X2740883D1*
X408701Y2026411D2*
X828482D1*
X962827D2*
X1892202D1*
X2007748D2*
X2104848D1*
X2333335D2*
X2740883D1*
X408701Y2001542D2*
X837563D1*
X953794D2*
X1917055D1*
X2032602D2*
X2098403D1*
X2329234D2*
X2740883D1*
X408701Y1976673D2*
X829018D1*
X962339D2*
X1941958D1*
X2057455D2*
X2096499D1*
X2321371D2*
X2740883D1*
X408701Y1951804D2*
X830678D1*
X960678D2*
X1966811D1*
X2309214D2*
X2740883D1*
X408701Y1926936D2*
X840248D1*
X951108D2*
X1991664D1*
X2291684D2*
X2740883D1*
X408701Y1902067D2*
X829654D1*
X961655D2*
X2016567D1*
X2266928D2*
X2740883D1*
X408701Y1877198D2*
X829702D1*
X961606D2*
X2041079D1*
X2242026D2*
X2740883D1*
X408701Y1852329D2*
X840444D1*
X950912D2*
X2041079D1*
X2218735D2*
X2740883D1*
X408701Y1827461D2*
X875795D1*
X915562D2*
X2041079D1*
X2218735D2*
X2740883D1*
X408701Y1802592D2*
X2041079D1*
X2218735D2*
X2740883D1*
X408701Y1777723D2*
X2041079D1*
X2218735D2*
X2740883D1*
X408701Y1752854D2*
X2041079D1*
X2218735D2*
X2740883D1*
X408701Y1727986D2*
X2041079D1*
X2218735D2*
X2740883D1*
X408701Y1703117D2*
X2041079D1*
X2218735D2*
X2740883D1*
X408701Y1678248D2*
X2041079D1*
X2218735D2*
X2305874D1*
X2414584D2*
X2740883D1*
X408701Y1653379D2*
X1248598D1*
X1326206D2*
X2041079D1*
X2218735D2*
X2279654D1*
X2440854D2*
X2740883D1*
X408701Y1628510D2*
X1223062D1*
X1492075D2*
X2041079D1*
X2218735D2*
X2266762D1*
X2453696D2*
X2740883D1*
X408701Y1603642D2*
X1213539D1*
X1524986D2*
X1963832D1*
X2218735D2*
X2261782D1*
X2458676D2*
X2740883D1*
X408701Y1578773D2*
X1154604D1*
X1549839D2*
X1936587D1*
X2218735D2*
X2263344D1*
X2457114D2*
X2740883D1*
X408701Y1553904D2*
X1123451D1*
X1574741D2*
X1926430D1*
X2218735D2*
X2254214D1*
X2448618D2*
X2740883D1*
X408701Y1529035D2*
X1112075D1*
X1599594D2*
X1921255D1*
X2430551D2*
X2740883D1*
X408701Y1504167D2*
X1110366D1*
X1624448D2*
X1896402D1*
X2425424D2*
X2740883D1*
X408701Y1479298D2*
X1117690D1*
X1648570D2*
X1871547D1*
X2425424D2*
X2740883D1*
X408701Y1454429D2*
X1129507D1*
X1655747D2*
X1846646D1*
X1962192D2*
X2041079D1*
X2425424D2*
X2740883D1*
X408701Y1429560D2*
X1122963D1*
X1655747D2*
X1821791D1*
X1937339D2*
X2041079D1*
X2425424D2*
X2740883D1*
X408701Y1404692D2*
X1116420D1*
X1655747D2*
X1796938D1*
X1912436D2*
X2041079D1*
X2425424D2*
X2740883D1*
X408701Y1379823D2*
X1109878D1*
X1655747D2*
X1772035D1*
X1887583D2*
X2041079D1*
X2425424D2*
X2740883D1*
X408701Y1354954D2*
X1103335D1*
X1655747D2*
X1747182D1*
X1862730D2*
X2041079D1*
X2425424D2*
X2740883D1*
X408701Y1330085D2*
X1096791D1*
X1655747D2*
X1722328D1*
X1837827D2*
X2041079D1*
X2425424D2*
X2740883D1*
X408701Y1305217D2*
X1090248D1*
X1812974D2*
X2041079D1*
X2425424D2*
X2740883D1*
X408701Y1280348D2*
X1083706D1*
X1788119D2*
X2041079D1*
X2425424D2*
X2740883D1*
X408701Y1255479D2*
X1077163D1*
X1767954D2*
X2041079D1*
X2425424D2*
X2740883D1*
X408701Y1230610D2*
X1070619D1*
X1763412D2*
X2041079D1*
X2425424D2*
X2740883D1*
X408701Y1205741D2*
X1064076D1*
X1747836D2*
X2041079D1*
X2425424D2*
X2740883D1*
X408701Y1180873D2*
X1057534D1*
X1475278D2*
X1500210D1*
X1649399D2*
X2041079D1*
X2425424D2*
X2740883D1*
X408701Y1156004D2*
X1050991D1*
X1473959D2*
X1507680D1*
X1641928D2*
X2041079D1*
X2425424D2*
X2740883D1*
X408701Y1131135D2*
X1044496D1*
X1472690D2*
X1528482D1*
X1624252D2*
X2041079D1*
X2218735D2*
X2276332D1*
X2444126D2*
X2740883D1*
X408701Y1106266D2*
X1039858D1*
X1471371D2*
X1541079D1*
X1624252D2*
X2041079D1*
X2218735D2*
X2265248D1*
X2455259D2*
X2740883D1*
X408701Y1081398D2*
X1041274D1*
X1470054D2*
X1541079D1*
X1624252D2*
X2041079D1*
X2218735D2*
X2261587D1*
X2458920D2*
X2740883D1*
X408701Y1056529D2*
X1045180D1*
X1468735D2*
X1541079D1*
X1624252D2*
X2041079D1*
X2218735D2*
X2264467D1*
X2456039D2*
X2740883D1*
X408701Y1031660D2*
X1051675D1*
X1467466D2*
X1541079D1*
X1636362D2*
X2041079D1*
X2218735D2*
X2274526D1*
X2445932D2*
X2740883D1*
X408701Y1006791D2*
X828482D1*
X962827D2*
X1060951D1*
X1493100D2*
X1547084D1*
X1661215D2*
X2041079D1*
X2218735D2*
X2295278D1*
X2425180D2*
X2740883D1*
X408701Y981923D2*
X828482D1*
X962827D2*
X1073500D1*
X1517660D2*
X1570571D1*
X1686070D2*
X2041079D1*
X2218735D2*
X2740883D1*
X408701Y957054D2*
X828482D1*
X962827D2*
X1090151D1*
X1526791D2*
X1595424D1*
X1710923D2*
X2041079D1*
X2218735D2*
X2740883D1*
X408701Y932185D2*
X828482D1*
X962827D2*
X1111294D1*
X1526694D2*
X1620278D1*
X1735825D2*
X2041079D1*
X2218735D2*
X2740883D1*
X408701Y907316D2*
X828482D1*
X962827D2*
X1139858D1*
X1528403D2*
X1645180D1*
X1807992D2*
X2041079D1*
X2218735D2*
X2740883D1*
X408701Y882448D2*
X830580D1*
X960776D2*
X1180386D1*
X1553256D2*
X1670034D1*
X1825278D2*
X2041079D1*
X2218735D2*
X2740883D1*
X408701Y857579D2*
X829067D1*
X962290D2*
X1332680D1*
X1448227D2*
X1462567D1*
X1578159D2*
X1680923D1*
X1830894D2*
X2032094D1*
X2218735D2*
X2740883D1*
X408701Y832710D2*
X837807D1*
X953550D2*
X1357534D1*
X1473080D2*
X1487453D1*
X1603012D2*
X1684146D1*
X1827671D2*
X2007241D1*
X2218735D2*
X2740883D1*
X408701Y807841D2*
X831802D1*
X959555D2*
X1196596D1*
X1283726D2*
X1382436D1*
X1497934D2*
X1512339D1*
X1627866D2*
X1697719D1*
X1814096D2*
X1982339D1*
X2218735D2*
X2740883D1*
X408701Y782972D2*
X828627D1*
X962680D2*
X1174087D1*
X1378256D2*
X1407290D1*
X1522836D2*
X1537231D1*
X1652768D2*
X1740298D1*
X1771518D2*
X1957486D1*
X2073031D2*
X2088350D1*
X2218735D2*
X2740883D1*
X408701Y758104D2*
X835512D1*
X955844D2*
X1165786D1*
X1405942D2*
X1432143D1*
X1547690D2*
X1562114D1*
X2048130D2*
X2082241D1*
X2218735D2*
X2740883D1*
X408701Y733235D2*
X857827D1*
X933530D2*
X1166615D1*
X1430844D2*
X1457046D1*
X1572543D2*
X1586996D1*
X2023276D2*
X2057339D1*
X2218735D2*
X2740883D1*
X408701Y708366D2*
X1176919D1*
X1303403D2*
X1340151D1*
X1455698D2*
X1481899D1*
X1597446D2*
X1611793D1*
X1998423D2*
X2032486D1*
X2218735D2*
X2740883D1*
X408701Y683497D2*
X1204507D1*
X1275815D2*
X1365054D1*
X1480551D2*
X1506752D1*
X1622299D2*
X1670766D1*
X1738657D2*
X1773159D1*
X1841050D2*
X2007631D1*
X2217612D2*
X2740883D1*
X408701Y658629D2*
X1389907D1*
X1505454D2*
X1531655D1*
X1869760D2*
X1982778D1*
X2200668D2*
X2740883D1*
X408701Y633760D2*
X1414760D1*
X1530307D2*
X1556508D1*
X2175766D2*
X2740883D1*
X408701Y608891D2*
X1439663D1*
X1555160D2*
X1581362D1*
X2150912D2*
X2740883D1*
X408701Y584022D2*
X453335D1*
X570298D2*
X1464516D1*
X1580063D2*
X1608315D1*
X2126059D2*
X2579311D1*
X2696274D2*
X2740883D1*
X408701Y559154D2*
X431167D1*
X592466D2*
X1489370D1*
X2101157D2*
X2557143D1*
X2718442D2*
X2740883D1*
X602866Y534285D2*
X1514272D1*
X2076303D2*
X2546743D1*
X605650Y509416D2*
X1539322D1*
X2051206D2*
X2543959D1*
X408701Y484547D2*
X422084D1*
X601499D2*
X2548110D1*
X2727524D2*
X2740873D1*
X408701Y459678D2*
X434291D1*
X589340D2*
X2560268D1*
X2715318D2*
X2740883D1*
X408701Y434810D2*
X460122D1*
X563510D2*
X2586098D1*
X2689487D2*
X2740883D1*
X408701Y409941D2*
X2740883D1*
X2728885Y504642D2*
X2726642Y490480D1*
X2722211Y476845D1*
X2715702Y464070D1*
X2707274Y452470D1*
X2697136Y442332D1*
X2685537Y433904D1*
X2672761Y427395D1*
X2659126Y422965D1*
X2644965Y420722D1*
X2630626D1*
X2616465Y422965D1*
X2602829Y427395D1*
X2590054Y433904D1*
X2578454Y442332D1*
X2568316Y452470D1*
X2559888Y464070D1*
X2553379Y476845D1*
X2548949Y490480D1*
X2546706Y504642D1*
Y518980D1*
X2548949Y533142D1*
X2553379Y546777D1*
X2559888Y559552D1*
X2568316Y571152D1*
X2578454Y581290D1*
X2590054Y589718D1*
X2602829Y596227D1*
X2616465Y600657D1*
X2630626Y602900D1*
X2644965D1*
X2659126Y600657D1*
X2672761Y596227D1*
X2685537Y589718D1*
X2697136Y581290D1*
X2707274Y571152D1*
X2715702Y559552D1*
X2722211Y546777D1*
X2726642Y533142D1*
X2728885Y518980D1*
Y504642D1*
X602900Y2236925D2*
X600657Y2222764D1*
X596227Y2209129D1*
X589718Y2196353D1*
X581290Y2184753D1*
X571152Y2174615D1*
X559552Y2166188D1*
X546777Y2159678D1*
X533142Y2155248D1*
X518980Y2153005D1*
X504642D1*
X490480Y2155248D1*
X476845Y2159678D1*
X464070Y2166188D1*
X452470Y2174615D1*
X442332Y2184753D1*
X433904Y2196353D1*
X427395Y2209129D1*
X422965Y2222764D1*
X420722Y2236925D1*
Y2251264D1*
X422965Y2265425D1*
X427395Y2279060D1*
X433904Y2291836D1*
X442332Y2303436D1*
X452470Y2313573D1*
X464070Y2322001D1*
X476845Y2328510D1*
X490480Y2332941D1*
X504642Y2335184D1*
X518980D1*
X533142Y2332941D1*
X546777Y2328510D1*
X559552Y2322001D1*
X571152Y2313573D1*
X581290Y2303436D1*
X589718Y2291836D1*
X596227Y2279060D1*
X600657Y2265425D1*
X602900Y2251264D1*
Y2236925D1*
X2728885D2*
X2726642Y2222764D1*
X2722211Y2209129D1*
X2715702Y2196353D1*
X2707274Y2184753D1*
X2697136Y2174615D1*
X2685537Y2166188D1*
X2672761Y2159678D1*
X2659126Y2155248D1*
X2644965Y2153005D1*
X2630626D1*
X2616465Y2155248D1*
X2602829Y2159678D1*
X2590054Y2166188D1*
X2578454Y2174615D1*
X2568316Y2184753D1*
X2559888Y2196353D1*
X2553379Y2209129D1*
X2548949Y2222764D1*
X2546706Y2236925D1*
Y2251264D1*
X2548949Y2265425D1*
X2553379Y2279060D1*
X2559888Y2291836D1*
X2568316Y2303436D1*
X2578454Y2313573D1*
X2590054Y2322001D1*
X2602829Y2328510D1*
X2616465Y2332941D1*
X2630626Y2335184D1*
X2644965D1*
X2659126Y2332941D1*
X2672761Y2328510D1*
X2685537Y2322001D1*
X2697136Y2313573D1*
X2707274Y2303436D1*
X2715702Y2291836D1*
X2722211Y2279060D1*
X2726642Y2265425D1*
X2728885Y2251264D1*
Y2236925D1*
X602900Y504642D2*
X600657Y490480D1*
X596227Y476845D1*
X589718Y464070D1*
X581290Y452470D1*
X571152Y442332D1*
X559552Y433904D1*
X546777Y427395D1*
X533142Y422965D1*
X518980Y420722D1*
X504642D1*
X490480Y422965D1*
X476845Y427395D1*
X464070Y433904D1*
X452470Y442332D1*
X442332Y452470D1*
X433904Y464070D1*
X427395Y476845D1*
X422965Y490480D1*
X420722Y504642D1*
Y518980D1*
X422965Y533142D1*
X427395Y546777D1*
X433904Y559552D1*
X442332Y571152D1*
X452470Y581290D1*
X464070Y589718D1*
X476845Y596227D1*
X490480Y600657D1*
X504642Y602900D1*
X518980D1*
X533142Y600657D1*
X546777Y596227D1*
X559552Y589718D1*
X571152Y581290D1*
X581290Y571152D1*
X589718Y559552D1*
X596227Y546777D1*
X600657Y533142D1*
X602900Y518980D1*
Y504642D1*
X843488Y1029248D2*
X960350D1*
Y899886D1*
X950829D1*
X955427Y890894D1*
X958563Y881241D1*
X960151Y871217D1*
Y861067D1*
X958563Y851042D1*
X955427Y841390D1*
X950819Y832346D1*
X946954Y826799D1*
X950819Y821197D1*
X955427Y812154D1*
X958563Y802501D1*
X960151Y792476D1*
Y782327D1*
X958563Y772302D1*
X955427Y762650D1*
X950819Y753606D1*
X944853Y745395D1*
X937676Y738218D1*
X929465Y732252D1*
X920421Y727644D1*
X910769Y724508D1*
X900744Y722920D1*
X890594D1*
X880570Y724508D1*
X870917Y727644D1*
X861874Y732252D1*
X853663Y738218D1*
X846486Y745395D1*
X840520Y753606D1*
X835912Y762650D1*
X832776Y772302D1*
X831188Y782327D1*
Y792476D1*
X832776Y802501D1*
X835912Y812154D1*
X840520Y821197D1*
X844385Y826744D1*
X840520Y832346D1*
X835912Y841390D1*
X832776Y851042D1*
X831188Y861067D1*
Y871217D1*
X832776Y881241D1*
X835912Y890894D1*
X840491Y899886D1*
X830988D1*
Y1029248D1*
X843488D1*
Y2131610D2*
X960350D1*
Y2002248D1*
X950829D1*
X955427Y1993256D1*
X958563Y1983604D1*
X960151Y1973579D1*
Y1963429D1*
X958563Y1953404D1*
X955427Y1943752D1*
X950819Y1934709D1*
X946954Y1929161D1*
X950819Y1923559D1*
X955427Y1914516D1*
X958563Y1904864D1*
X960151Y1894839D1*
Y1884689D1*
X958563Y1874664D1*
X955427Y1865012D1*
X950819Y1855969D1*
X944853Y1847757D1*
X937676Y1840580D1*
X929465Y1834614D1*
X920421Y1830007D1*
X910769Y1826870D1*
X900744Y1825282D1*
X890594D1*
X880570Y1826870D1*
X870917Y1830007D1*
X861874Y1834614D1*
X853663Y1840580D1*
X846486Y1847757D1*
X840520Y1855969D1*
X835912Y1865012D1*
X832776Y1874664D1*
X831188Y1884689D1*
Y1894839D1*
X832776Y1904864D1*
X835912Y1914516D1*
X840520Y1923559D1*
X844385Y1929106D1*
X840520Y1934709D1*
X835912Y1943752D1*
X832776Y1953404D1*
X831188Y1963429D1*
Y1973579D1*
X832776Y1983604D1*
X835912Y1993256D1*
X840491Y2002248D1*
X830988D1*
Y2131610D1*
X843488D1*
X2282143Y1136106D2*
X2216226D1*
X2216135Y689846D1*
X2215176Y683787D1*
X2213281Y677954D1*
X2210496Y672488D1*
X2206890Y667526D1*
X2151773Y612239D1*
X2049009Y509646D1*
X2044047Y506039D1*
X2038581Y503255D1*
X2032748Y501360D1*
X2026689Y500400D1*
X1948622Y500280D1*
X1563862Y500400D1*
X1557803Y501360D1*
X1551970Y503255D1*
X1546504Y506039D1*
X1541542Y509646D1*
X1486255Y564762D1*
X1342037Y708980D1*
X1301285Y708941D1*
X1295329Y700911D1*
X1287278Y692860D1*
X1278067Y686168D1*
X1267923Y680999D1*
X1257094Y677482D1*
X1245850Y675699D1*
X1234465D1*
X1223220Y677482D1*
X1212392Y680999D1*
X1202248Y686168D1*
X1193037Y692860D1*
X1184986Y700911D1*
X1178294Y710122D1*
X1173125Y720266D1*
X1169608Y731094D1*
X1167825Y742339D1*
Y753724D1*
X1169608Y764969D1*
X1173125Y775797D1*
X1178294Y785941D1*
X1184986Y795152D1*
X1193037Y803203D1*
X1202248Y809895D1*
X1212392Y815064D1*
X1223220Y818581D1*
X1234465Y820364D1*
X1245850D1*
X1257094Y818581D1*
X1267923Y815064D1*
X1278067Y809895D1*
X1287278Y803203D1*
X1295329Y795152D1*
X1301241Y787108D1*
X1361335Y787001D1*
X1367394Y786042D1*
X1373227Y784147D1*
X1378693Y781362D1*
X1383655Y777756D1*
X1438942Y722639D1*
X1583160Y578421D1*
X1643930Y578461D1*
X1642224Y579020D1*
X1626854Y579140D1*
X1620795Y580100D1*
X1614962Y581995D1*
X1609496Y584780D1*
X1604534Y588386D1*
X1549247Y643501D1*
X1314500Y878249D1*
X1197433Y878353D1*
X1191374Y879312D1*
X1185541Y881207D1*
X1165907Y891541D1*
X1147727Y903276D1*
X1130630Y916539D1*
X1114744Y931232D1*
X1100189Y947244D1*
X1087073Y964455D1*
X1075495Y982738D1*
X1065542Y1001951D1*
X1057289Y1021954D1*
X1050797Y1042597D1*
X1046114Y1063723D1*
X1043277Y1085176D1*
X1042307Y1106793D1*
X1042555Y1112921D1*
X1043564Y1118226D1*
X1133626Y1460633D1*
X1126341Y1469164D1*
X1120392Y1478871D1*
X1116035Y1489390D1*
X1113378Y1500461D1*
X1112484Y1511811D1*
X1113378Y1523161D1*
X1116035Y1534232D1*
X1120392Y1544751D1*
X1126341Y1554458D1*
X1133735Y1563115D1*
X1142392Y1570509D1*
X1152100Y1576458D1*
X1162618Y1580815D1*
X1173689Y1583472D1*
X1185039Y1584366D1*
X1196390Y1583472D1*
X1207461Y1580815D1*
X1216059Y1577344D1*
X1215070Y1584858D1*
Y1596244D1*
X1216852Y1607488D1*
X1220369Y1618316D1*
X1225538Y1628461D1*
X1232230Y1637672D1*
X1240281Y1645723D1*
X1249492Y1652415D1*
X1259636Y1657584D1*
X1270465Y1661101D1*
X1281709Y1662883D1*
X1293094D1*
X1304339Y1661101D1*
X1315167Y1657584D1*
X1325311Y1652415D1*
X1334522Y1645723D1*
X1342573Y1637672D1*
X1348486Y1629627D1*
X1483382Y1629521D1*
X1489441Y1628562D1*
X1495274Y1626667D1*
X1500740Y1623882D1*
X1505702Y1620276D1*
X1560990Y1565159D1*
X1643898Y1482080D1*
X1647504Y1477118D1*
X1650289Y1471652D1*
X1652184Y1465819D1*
X1653143Y1459760D1*
X1653264Y1381693D1*
Y1316702D1*
X1659974Y1320552D1*
X1670492Y1324909D1*
X1681563Y1327567D1*
X1692913Y1328461D1*
X1704264Y1327567D1*
X1715335Y1324909D1*
X1718487Y1323747D1*
X1927727Y1533012D1*
X1927668Y1545063D1*
X1929450Y1556307D1*
X1932967Y1567135D1*
X1938136Y1577280D1*
X1944828Y1586491D1*
X1952879Y1594542D1*
X1962091Y1601234D1*
X1972235Y1606403D1*
X1983063Y1609920D1*
X1994307Y1611702D1*
X2005693D1*
X2016937Y1609920D1*
X2027765Y1606403D1*
X2037909Y1601234D1*
X2043608Y1597311D1*
X2043587Y1877493D1*
X1875787Y2045479D1*
X1872181Y2050441D1*
X1869396Y2055907D1*
X1867501Y2061740D1*
X1866542Y2067799D1*
X1866421Y2143865D1*
X1856824Y2147951D1*
X1847117Y2153900D1*
X1838459Y2161294D1*
X1831066Y2169951D1*
X1825117Y2179659D1*
X1820760Y2190177D1*
X1818102Y2201248D1*
X1817209Y2212598D1*
X1818102Y2223949D1*
X1820760Y2235020D1*
X1825117Y2245538D1*
X1831066Y2255245D1*
X1838459Y2263903D1*
X1847117Y2271297D1*
X1856824Y2277245D1*
X1867343Y2281602D1*
X1878413Y2284260D1*
X1889764Y2285154D1*
X1901114Y2284260D1*
X1912185Y2281602D1*
X1922703Y2277245D1*
X1932411Y2271297D1*
X1941068Y2263903D1*
X1948462Y2255245D1*
X1954411Y2245538D1*
X1958768Y2235020D1*
X1961425Y2223949D1*
X1962319Y2212598D1*
X1961425Y2201248D1*
X1958768Y2190177D1*
X1954411Y2179659D1*
X1948462Y2169951D1*
X1944588Y2165102D1*
X1944602Y2087035D1*
X2090836Y1940824D1*
X2090951Y1955823D1*
X2091911Y1961882D1*
X2093806Y1967715D1*
X2096591Y1973181D1*
X2100197Y1978143D1*
X2102383Y1980501D1*
X2100896Y1990370D1*
Y2001756D1*
X2102678Y2013000D1*
X2106196Y2023828D1*
X2111365Y2033972D1*
X2118056Y2043184D1*
X2126108Y2051235D1*
X2135319Y2057927D1*
X2145463Y2063096D1*
X2156291Y2066613D1*
X2167535Y2068395D1*
X2178921D1*
X2190165Y2066613D1*
X2200993Y2063096D1*
X2211138Y2057927D1*
X2220349Y2051235D1*
X2228400Y2043184D1*
X2235092Y2033972D1*
X2240261Y2023828D1*
X2243778Y2013000D1*
X2245379Y2003281D1*
X2249067Y2012819D1*
X2252182Y2025710D1*
X2253567Y2038899D1*
X2253196Y2052155D1*
X2251075Y2065247D1*
X2247243Y2077942D1*
X2241765Y2090020D1*
X2234739Y2101268D1*
X2226289Y2111487D1*
X2216560Y2120501D1*
X2205726Y2128148D1*
X2193976Y2134298D1*
X2192967Y2133982D1*
X2184916Y2125930D1*
X2175705Y2119239D1*
X2165560Y2114070D1*
X2154732Y2110552D1*
X2143488Y2108770D1*
X2132102D1*
X2120858Y2110552D1*
X2110030Y2114070D1*
X2099886Y2119239D1*
X2090675Y2125930D1*
X2082623Y2133982D1*
X2075932Y2143193D1*
X2070762Y2153337D1*
X2067245Y2164165D1*
X2065463Y2175409D1*
Y2186795D1*
X2067245Y2198039D1*
X2070762Y2208867D1*
X2075932Y2219012D1*
X2082623Y2228223D1*
X2090675Y2236274D1*
X2099886Y2242966D1*
X2110030Y2248135D1*
X2120858Y2251652D1*
X2132102Y2253434D1*
X2143488D1*
X2154732Y2251652D1*
X2165560Y2248135D1*
X2175705Y2242966D1*
X2184916Y2236274D1*
X2192967Y2228223D1*
X2199659Y2219012D1*
X2202323Y2214256D1*
X2223382Y2206772D1*
X2228117Y2204673D1*
X2247114Y2194567D1*
X2266365Y2180865D1*
X2283636Y2164738D1*
X2298623Y2146470D1*
X2311064Y2126379D1*
X2320740Y2104822D1*
X2327482Y2082173D1*
X2331169Y2058833D1*
X2331739Y2035211D1*
X2329181Y2011719D1*
X2323539Y1988773D1*
X2314915Y1966774D1*
X2303457Y1946108D1*
X2289369Y1927138D1*
X2216255Y1853886D1*
X2216256Y1528916D1*
X2224572Y1534009D1*
X2233949Y1537894D1*
X2242904Y1540081D1*
X2269136Y1566346D1*
X2266717Y1574791D1*
X2264356Y1589698D1*
Y1604790D1*
X2266717Y1619697D1*
X2271381Y1634050D1*
X2278232Y1647496D1*
X2287102Y1659706D1*
X2297774Y1670378D1*
X2309984Y1679248D1*
X2323430Y1686100D1*
X2337783Y1690764D1*
X2352690Y1693125D1*
X2367782D1*
X2382689Y1690764D1*
X2397042Y1686100D1*
X2410488Y1679248D1*
X2422698Y1670378D1*
X2433370Y1659706D1*
X2442240Y1647496D1*
X2449092Y1634050D1*
X2453756Y1619697D1*
X2456117Y1604790D1*
Y1589698D1*
X2453756Y1574791D1*
X2449092Y1560438D1*
X2442240Y1546992D1*
X2433370Y1534782D1*
X2422937Y1524331D1*
X2422949Y1152860D1*
X2433370Y1142383D1*
X2442240Y1130173D1*
X2449092Y1116727D1*
X2453756Y1102374D1*
X2456117Y1087467D1*
Y1072375D1*
X2453756Y1057469D1*
X2449092Y1043115D1*
X2442240Y1029669D1*
X2433370Y1017459D1*
X2422698Y1006787D1*
X2410488Y997917D1*
X2397042Y991066D1*
X2382689Y986402D1*
X2367782Y984041D1*
X2352690D1*
X2337783Y986402D1*
X2323430Y991066D1*
X2309984Y997917D1*
X2297774Y1006787D1*
X2287102Y1017459D1*
X2278232Y1029669D1*
X2271381Y1043115D1*
X2266717Y1057469D1*
X2264356Y1072375D1*
Y1087467D1*
X2266717Y1102374D1*
X2271381Y1116727D1*
X2278232Y1130173D1*
X2282181Y1136085D1*
X1644629Y658667D2*
X1649552Y665231D1*
X1657604Y673282D1*
X1666815Y679974D1*
X1676959Y685143D1*
X1687787Y688660D1*
X1699031Y690442D1*
X1710417D1*
X1721661Y688660D1*
X1732490Y685143D1*
X1742634Y679974D1*
X1751845Y673282D1*
X1755915Y669520D1*
X1764440Y676808D1*
X1774147Y682757D1*
X1784665Y687114D1*
X1795736Y689772D1*
X1807087Y690665D1*
X1818437Y689772D1*
X1829508Y687114D1*
X1840026Y682757D1*
X1849734Y676808D1*
X1858391Y669415D1*
X1865785Y660757D1*
X1868171Y657186D1*
X1983795Y657201D1*
X2090820Y764213D1*
X2090831Y803256D1*
X1993891Y706496D1*
X1988929Y702890D1*
X1983463Y700105D1*
X1977630Y698210D1*
X1971571Y697251D1*
X1893504Y697130D1*
X1638665Y697251D1*
X1632606Y698210D1*
X1626773Y700105D1*
X1621307Y702890D1*
X1616345Y706496D1*
X1561058Y761613D1*
X1450331Y872340D1*
X1441406Y873220D1*
X1430335Y875878D1*
X1425720Y877580D1*
X1644610Y658703D1*
X1828238Y848638D2*
X1826455Y837394D1*
X1822938Y826566D1*
X1817769Y816421D1*
X1811077Y807210D1*
X1803026Y799159D1*
X1793815Y792467D1*
X1783671Y787298D1*
X1772843Y783781D1*
X1761598Y781999D1*
X1750213D1*
X1738969Y783781D1*
X1728140Y787298D1*
X1717996Y792467D1*
X1708785Y799159D1*
X1700734Y807210D1*
X1694042Y816421D1*
X1688873Y826566D1*
X1685356Y837394D1*
X1683573Y848638D1*
Y860024D1*
X1685081Y869894D1*
X1552953Y1002172D1*
X1549346Y1007134D1*
X1546562Y1012600D1*
X1544667Y1018433D1*
X1543707Y1024492D1*
X1543587Y1102559D1*
Y1123507D1*
X1536894Y1127113D1*
X1527682Y1133804D1*
X1519631Y1141856D1*
X1512940Y1151067D1*
X1507770Y1161211D1*
X1504253Y1172039D1*
X1502471Y1183283D1*
Y1194669D1*
X1504253Y1205913D1*
X1505869Y1211585D1*
X1496004Y1213706D1*
X1473318Y1191017D1*
X1464157Y1016534D1*
X1475177Y1013886D1*
X1485696Y1009529D1*
X1495403Y1003580D1*
X1504060Y996186D1*
X1511454Y987529D1*
X1517403Y977822D1*
X1521760Y967303D1*
X1524417Y956232D1*
X1525311Y944882D1*
X1524417Y933531D1*
X1521760Y922461D1*
X1518623Y914591D1*
X1657969Y775268D1*
X1952328Y775311D1*
X2043580Y866579D1*
X2043587Y1481399D1*
X2037909Y1477507D1*
X2027765Y1472337D1*
X2016937Y1468820D1*
X2005693Y1467038D1*
X1994307D1*
X1983063Y1468820D1*
X1976139Y1470898D1*
X1765350Y1260071D1*
X1765245Y1250213D1*
X1763463Y1238969D1*
X1759946Y1228140D1*
X1754777Y1217996D1*
X1748085Y1208785D1*
X1740034Y1200734D1*
X1730823Y1194042D1*
X1720678Y1188873D1*
X1709850Y1185356D1*
X1698606Y1183573D1*
X1687220D1*
X1675976Y1185356D1*
X1665148Y1188873D1*
X1655004Y1194042D1*
X1646474Y1200197D1*
X1647358Y1188976D1*
X1646465Y1177626D1*
X1643807Y1166555D1*
X1639450Y1156037D1*
X1633501Y1146329D1*
X1626108Y1137672D1*
X1621766Y1133681D1*
X1621768Y1043749D1*
X1740311Y925207D1*
X1750213Y926663D1*
X1761598D1*
X1772843Y924881D1*
X1783671Y921364D1*
X1793815Y916194D1*
X1803026Y909503D1*
X1811077Y901451D1*
X1817769Y892240D1*
X1822938Y882096D1*
X1826455Y871268D1*
X1828238Y860024D1*
Y848638D1*
X2730906Y2349705D2*
X406201D1*
Y406201D1*
X2743406D1*
Y2349705D1*
X2730906D1*
D24*
X895669Y964567D3*
D25*
Y866142D3*
Y787402D3*
Y688976D3*
D26*
X789370Y1085433D3*
Y568110D3*
D24*
X895669Y2066929D3*
D25*
Y1968504D3*
Y1889764D3*
Y1791339D3*
D26*
X789370Y2187795D3*
Y1670472D3*
D24*
X2253937Y1200787D3*
D25*
Y1299213D3*
Y1377953D3*
Y1476378D3*
D26*
X2360236Y1079921D3*
Y1597244D3*
M02*
