G04 DipTrace 3.0.0.2*
G04 TopSilk.gbr*
%MOIN*%
G04 #@! TF.FileFunction,Legend,Top*
G04 #@! TF.Part,Single*
%ADD10C,0.009843*%
%ADD22C,0.019694*%
%ADD28C,0.015764*%
%ADD29C,0.003937*%
%ADD31C,0.015422*%
%ADD33C,0.015395*%
%ADD67C,0.00772*%
%FSLAX26Y26*%
G04*
G70*
G90*
G75*
G01*
G04 TopSilk*
%LPD*%
X2285413Y1572856D2*
D10*
X2234272D1*
X2624027Y1162401D2*
Y1150591D1*
X2415341Y1162401D2*
Y1150591D1*
D22*
X2368115Y1220472D3*
X2624027Y1278544D2*
D10*
Y1290354D1*
X2415341Y1150591D2*
X2624027D1*
X2415341Y1278544D2*
Y1290354D1*
X2624027D1*
Y1398621D2*
Y1386811D1*
X2415341Y1398621D2*
Y1386811D1*
D22*
X2368115Y1456693D3*
X2624027Y1514765D2*
D10*
Y1526575D1*
X2415341Y1386811D2*
X2624027D1*
X2415341Y1514765D2*
Y1526575D1*
X2624027D1*
X2765748Y1098440D2*
Y555103D1*
Y1098440D2*
X2439008D1*
X2765748Y555103D2*
X2438952D1*
X2281472Y1098440D2*
X2204724D1*
Y555103D1*
X2281472D1*
X2765748Y2200802D2*
Y1657465D1*
Y2200802D2*
X2439008D1*
X2765748Y1657465D2*
X2438952D1*
X2281472Y2200802D2*
X2204724D1*
Y1657465D1*
X2281472D1*
X383858Y1066914D2*
Y1610251D1*
Y1066914D2*
X710598D1*
X383858Y1610251D2*
X710655D1*
X868134Y1066914D2*
X944882D1*
Y1610251D1*
X868134D1*
D28*
X1614144Y1638181D3*
X1706680Y1771654D2*
D10*
G02X1706680Y1771654I64974J0D01*
G01*
X1724388Y1744094D2*
D29*
X1818869D1*
X1724388Y1799214D2*
X1818869D1*
X1771629Y1744094D2*
Y1750007D1*
Y1799214D2*
Y1793273D1*
X1767739Y1753927D2*
G02X1767739Y1753927I3915J0D01*
G01*
Y1787374D2*
G02X1767739Y1787374I3915J0D01*
G01*
X1771629Y1757847D2*
X1757912Y1789367D1*
X1653554Y1641721D2*
D10*
X1889755D1*
Y1901560D1*
X1653554D1*
Y1641721D1*
D31*
X1136756Y1873369D3*
X1086614Y1864168D2*
D10*
Y1746063D1*
X1066929D1*
Y1864168D1*
X1086614D1*
D33*
X1248909Y2164709D3*
X1194843Y2159447D2*
D10*
Y2041339D1*
X1163353Y2159447D2*
Y2041339D1*
X1194843D2*
X1163353D1*
X1194843Y2159447D2*
X1163353D1*
D33*
X1321957Y658126D3*
X1376023Y663388D2*
D10*
Y781496D1*
X1407513Y663388D2*
Y781496D1*
X1376023D2*
X1407513D1*
X1376023Y663388D2*
X1407513D1*
X1740546Y795283D2*
X2079139D1*
X1740546Y692906D2*
X2079139D1*
Y795283D2*
Y692906D1*
X1740546Y795283D2*
Y763789D1*
Y724400D2*
Y692906D1*
Y763789D2*
G02X1740546Y724400I12J-19694D01*
G01*
X2035045Y1185032D2*
X1696451D1*
X2035045Y1287409D2*
X1696451D1*
Y1185032D2*
Y1287409D1*
X2035045Y1185032D2*
Y1216526D1*
Y1255915D2*
Y1287409D1*
Y1216526D2*
G02X2035045Y1255915I-12J19694D01*
G01*
X1259850Y1437407D2*
Y1098814D1*
X1157473Y1437407D2*
Y1098814D1*
X1259850D2*
X1157473D1*
X1259850Y1437407D2*
X1228356D1*
X1188967D2*
X1157473D1*
X1228356D2*
G02X1188967Y1437407I-19694J-12D01*
G01*
X2332396Y1523894D2*
D67*
X2334772Y1528647D1*
X2339581Y1533455D1*
X2344334Y1535832D1*
X2353895D1*
X2358704Y1533455D1*
X2363457Y1528647D1*
X2365889Y1523894D1*
X2368266Y1516709D1*
Y1504715D1*
X2365889Y1497585D1*
X2363457Y1492777D1*
X2358704Y1488024D1*
X2353895Y1485592D1*
X2344334D1*
X2339581Y1488024D1*
X2334772Y1492777D1*
X2332396Y1497585D1*
X2316956Y1526215D2*
X2312148Y1528647D1*
X2304963Y1535777D1*
Y1485592D1*
X1408106Y2051442D2*
X1410483Y2056196D1*
X1415291Y2061004D1*
X1420044Y2063381D1*
X1429606D1*
X1434414Y2061004D1*
X1439168Y2056196D1*
X1441599Y2051442D1*
X1443976Y2044257D1*
Y2032264D1*
X1441599Y2025134D1*
X1439168Y2020326D1*
X1434414Y2015572D1*
X1429606Y2013141D1*
X1420044D1*
X1415291Y2015572D1*
X1410483Y2020326D1*
X1408106Y2025134D1*
X1390235Y2051387D2*
Y2053764D1*
X1387858Y2058572D1*
X1385482Y2060949D1*
X1380673Y2063325D1*
X1371112D1*
X1366359Y2060949D1*
X1363982Y2058572D1*
X1361550Y2053764D1*
Y2049010D1*
X1363982Y2044202D1*
X1368735Y2037072D1*
X1392667Y2013141D1*
X1359174D1*
X801807Y2019946D2*
X804184Y2024699D1*
X808992Y2029508D1*
X813745Y2031884D1*
X823307D1*
X828115Y2029508D1*
X832868Y2024699D1*
X835300Y2019946D1*
X837677Y2012761D1*
Y2000768D1*
X835300Y1993638D1*
X832868Y1988830D1*
X828115Y1984076D1*
X823307Y1981644D1*
X813745D1*
X808992Y1984076D1*
X804184Y1988830D1*
X801807Y1993638D1*
X781559Y2031829D2*
X755306D1*
X769621Y2012706D1*
X762436D1*
X757683Y2010329D1*
X755306Y2007953D1*
X752874Y2000768D1*
Y1996015D1*
X755306Y1988830D1*
X760059Y1984021D1*
X767244Y1981644D1*
X774429D1*
X781559Y1984021D1*
X783936Y1986453D1*
X786368Y1991206D1*
X2139609Y517978D2*
X2141986Y522731D1*
X2146794Y527539D1*
X2151548Y529916D1*
X2161109D1*
X2165918Y527539D1*
X2170671Y522731D1*
X2173103Y517978D1*
X2175479Y510793D1*
Y498799D1*
X2173103Y491669D1*
X2170671Y486861D1*
X2165918Y482108D1*
X2161109Y479676D1*
X2151548D1*
X2146794Y482108D1*
X2141986Y486861D1*
X2139609Y491669D1*
X2100238Y479676D2*
Y529861D1*
X2124170Y496423D1*
X2088300D1*
X2369046Y1304522D2*
Y1254282D1*
X2352299D1*
X2345114Y1256714D1*
X2340306Y1261467D1*
X2337929Y1266276D1*
X2335552Y1273406D1*
Y1285399D1*
X2337929Y1292584D1*
X2340306Y1297337D1*
X2345114Y1302146D1*
X2352299Y1304522D1*
X2369046D1*
X2320113Y1294905D2*
X2315305Y1297337D1*
X2308120Y1304467D1*
Y1254282D1*
X2505780Y1599798D2*
Y1549558D1*
X2489033D1*
X2481848Y1551990D1*
X2477040Y1556743D1*
X2474663Y1561551D1*
X2472287Y1568681D1*
Y1580675D1*
X2474663Y1587860D1*
X2477040Y1592613D1*
X2481848Y1597421D1*
X2489033Y1599798D1*
X2505780D1*
X2454415Y1587804D2*
Y1590181D1*
X2452039Y1594989D1*
X2449662Y1597366D1*
X2444854Y1599743D1*
X2435292D1*
X2430539Y1597366D1*
X2428162Y1594989D1*
X2425731Y1590181D1*
Y1585428D1*
X2428162Y1580619D1*
X2432916Y1573490D1*
X2456847Y1549558D1*
X2423354D1*
X2262577Y1178341D2*
Y1140095D1*
X2264954Y1132910D1*
X2267386Y1130533D1*
X2272139Y1128101D1*
X2276947D1*
X2281701Y1130533D1*
X2284077Y1132910D1*
X2286509Y1140095D1*
Y1144848D1*
X2247138Y1168724D2*
X2242330Y1171156D1*
X2235145Y1178286D1*
Y1128101D1*
X2257579Y2268892D2*
Y2230646D1*
X2259956Y2223461D1*
X2262388Y2221084D1*
X2267141Y2218652D1*
X2271949D1*
X2276702Y2221084D1*
X2279079Y2223461D1*
X2281511Y2230646D1*
Y2235399D1*
X2239708Y2256899D2*
Y2259275D1*
X2237331Y2264084D1*
X2234955Y2266461D1*
X2230146Y2268837D1*
X2220585D1*
X2215832Y2266461D1*
X2213455Y2264084D1*
X2211023Y2259275D1*
Y2254522D1*
X2213455Y2249714D1*
X2218208Y2242584D1*
X2242140Y2218652D1*
X2208647D1*
X775296Y1737396D2*
Y1699150D1*
X777672Y1691965D1*
X780104Y1689588D1*
X784857Y1687156D1*
X789666D1*
X794419Y1689588D1*
X796796Y1691965D1*
X799227Y1699150D1*
Y1703903D1*
X755048Y1737341D2*
X728795D1*
X743110Y1718218D1*
X735925D1*
X731172Y1715841D1*
X728795Y1713465D1*
X726363Y1706280D1*
Y1701526D1*
X728795Y1694341D1*
X733548Y1689533D1*
X740733Y1687156D1*
X747918D1*
X755048Y1689533D1*
X757425Y1691965D1*
X759856Y1696718D1*
X1593455Y2118189D2*
X1571955D1*
X1564770Y2120621D1*
X1562338Y2122997D1*
X1559962Y2127751D1*
Y2132559D1*
X1562338Y2137312D1*
X1564770Y2139744D1*
X1571955Y2142121D1*
X1593455D1*
Y2091881D1*
X1576708Y2118189D2*
X1559962Y2091881D1*
X1544523Y2132504D2*
X1539714Y2134936D1*
X1532529Y2142065D1*
Y2091881D1*
X1458536Y2196929D2*
X1437036D1*
X1429851Y2199361D1*
X1427419Y2201738D1*
X1425042Y2206491D1*
Y2211299D1*
X1427419Y2216052D1*
X1429851Y2218484D1*
X1437036Y2220861D1*
X1458536D1*
Y2170621D1*
X1441789Y2196929D2*
X1425042Y2170621D1*
X1407171Y2208867D2*
Y2211244D1*
X1404795Y2216052D1*
X1402418Y2218429D1*
X1397610Y2220806D1*
X1388048D1*
X1383295Y2218429D1*
X1380918Y2216052D1*
X1378486Y2211244D1*
Y2206491D1*
X1380918Y2201682D1*
X1385672Y2194553D1*
X1409603Y2170621D1*
X1376110D1*
X1110111Y2005984D2*
X1088611D1*
X1081426Y2008416D1*
X1078994Y2010793D1*
X1076617Y2015546D1*
Y2020354D1*
X1078994Y2025108D1*
X1081426Y2027539D1*
X1088611Y2029916D1*
X1110111D1*
Y1979676D1*
X1093364Y2005984D2*
X1076617Y1979676D1*
X1056370Y2029861D2*
X1030117D1*
X1044431Y2010737D1*
X1037246D1*
X1032493Y2008361D1*
X1030117Y2005984D1*
X1027685Y1998799D1*
Y1994046D1*
X1030117Y1986861D1*
X1034870Y1982053D1*
X1042055Y1979676D1*
X1049240D1*
X1056370Y1982053D1*
X1058746Y1984484D1*
X1061178Y1989238D1*
X2001063Y608346D2*
X1979563D1*
X1972378Y610778D1*
X1969946Y613155D1*
X1967569Y617908D1*
Y622717D1*
X1969946Y627470D1*
X1972378Y629902D1*
X1979563Y632278D1*
X2001063D1*
Y582038D1*
X1984316Y608346D2*
X1967569Y582038D1*
X1928198D2*
Y632223D1*
X1952130Y598785D1*
X1916260D1*
X1310898Y1911496D2*
X1289398D1*
X1282213Y1913928D1*
X1279781Y1916305D1*
X1277405Y1921058D1*
Y1925866D1*
X1279781Y1930619D1*
X1282213Y1933051D1*
X1289398Y1935428D1*
X1310898D1*
Y1885188D1*
X1294151Y1911496D2*
X1277405Y1885188D1*
X1233281Y1935373D2*
X1257157D1*
X1259534Y1913873D1*
X1257157Y1916249D1*
X1249972Y1918681D1*
X1242842D1*
X1235657Y1916249D1*
X1230849Y1911496D1*
X1228472Y1904311D1*
Y1899558D1*
X1230849Y1892373D1*
X1235657Y1887564D1*
X1242842Y1885188D1*
X1249972D1*
X1257157Y1887564D1*
X1259534Y1889996D1*
X1261965Y1894749D1*
X1288029Y1775669D2*
X1266529D1*
X1259344Y1778101D1*
X1256912Y1780478D1*
X1254535Y1785231D1*
Y1790039D1*
X1256912Y1794793D1*
X1259344Y1797224D1*
X1266529Y1799601D1*
X1288029D1*
Y1749361D1*
X1271282Y1775669D2*
X1254535Y1749361D1*
X1210411Y1792416D2*
X1212788Y1797169D1*
X1219973Y1799546D1*
X1224726D1*
X1231911Y1797169D1*
X1236719Y1789984D1*
X1239096Y1778046D1*
Y1766108D1*
X1236719Y1756546D1*
X1231911Y1751738D1*
X1224726Y1749361D1*
X1222349D1*
X1215220Y1751738D1*
X1210411Y1756546D1*
X1208034Y1763731D1*
Y1766108D1*
X1210411Y1773293D1*
X1215220Y1778046D1*
X1222349Y1780423D1*
X1224726D1*
X1231911Y1778046D1*
X1236719Y1773293D1*
X1239096Y1766108D1*
X1769212Y1967598D2*
X1773966Y1972407D1*
X1781151Y1974783D1*
X1790712D1*
X1797897Y1972407D1*
X1802706Y1967598D1*
Y1962845D1*
X1800274Y1958037D1*
X1797897Y1955660D1*
X1793144Y1953284D1*
X1778774Y1948475D1*
X1773966Y1946099D1*
X1771589Y1943667D1*
X1769212Y1938914D1*
Y1931728D1*
X1773966Y1926975D1*
X1781151Y1924543D1*
X1790712D1*
X1797897Y1926975D1*
X1802706Y1931728D1*
X1753773Y1965167D2*
X1748965Y1967598D1*
X1741780Y1974728D1*
Y1924543D1*
X978189Y1840121D2*
Y1804251D1*
X975812Y1797066D1*
X971004Y1792313D1*
X963819Y1789881D1*
X959065D1*
X951880Y1792313D1*
X947072Y1797066D1*
X944695Y1804251D1*
Y1840121D1*
X929256Y1830504D2*
X924448Y1832936D1*
X917263Y1840065D1*
Y1789881D1*
X1170500Y2222010D2*
Y2186141D1*
X1168124Y2178956D1*
X1163315Y2174202D1*
X1156130Y2171770D1*
X1151377D1*
X1144192Y2174202D1*
X1139384Y2178956D1*
X1137007Y2186141D1*
Y2222010D1*
X1119136Y2210017D2*
Y2212394D1*
X1116759Y2217202D1*
X1114383Y2219579D1*
X1109574Y2221955D1*
X1100013D1*
X1095259Y2219579D1*
X1092883Y2217202D1*
X1090451Y2212394D1*
Y2207640D1*
X1092883Y2202832D1*
X1097636Y2195702D1*
X1121568Y2171770D1*
X1088074D1*
X1317437Y846845D2*
Y810975D1*
X1315061Y803790D1*
X1310252Y799037D1*
X1303067Y796605D1*
X1298314D1*
X1291129Y799037D1*
X1286321Y803790D1*
X1283944Y810975D1*
Y846845D1*
X1263696Y846790D2*
X1237443D1*
X1251758Y827667D1*
X1244573D1*
X1239820Y825290D1*
X1237443Y822913D1*
X1235011Y815728D1*
Y810975D1*
X1237443Y803790D1*
X1242196Y798982D1*
X1249382Y796605D1*
X1256567D1*
X1263696Y798982D1*
X1266073Y801414D1*
X1268505Y806167D1*
X1712086Y766136D2*
Y730267D1*
X1709710Y723081D1*
X1704901Y718328D1*
X1697716Y715896D1*
X1692963D1*
X1685778Y718328D1*
X1680970Y723081D1*
X1678593Y730267D1*
Y766136D1*
X1639222Y715896D2*
Y766081D1*
X1663154Y732643D1*
X1627284D1*
X2182552Y1285822D2*
Y1249952D1*
X2180175Y1242767D1*
X2175367Y1238013D1*
X2168181Y1235581D1*
X2163428D1*
X2156243Y1238013D1*
X2151435Y1242767D1*
X2149058Y1249952D1*
Y1285822D1*
X2104934Y1285766D2*
X2128811D1*
X2131187Y1264266D1*
X2128811Y1266643D1*
X2121625Y1269075D1*
X2114496D1*
X2107311Y1266643D1*
X2102502Y1261890D1*
X2100126Y1254705D1*
Y1249952D1*
X2102502Y1242767D1*
X2107311Y1237958D1*
X2114496Y1235581D1*
X2121625D1*
X2128811Y1237958D1*
X2131187Y1240390D1*
X2133619Y1245143D1*
X1315588Y1510630D2*
Y1474760D1*
X1313211Y1467575D1*
X1308403Y1462822D1*
X1301218Y1460390D1*
X1296464D1*
X1289279Y1462822D1*
X1284471Y1467575D1*
X1282094Y1474760D1*
Y1510630D1*
X1237970Y1503445D2*
X1240347Y1508198D1*
X1247532Y1510575D1*
X1252285D1*
X1259470Y1508198D1*
X1264278Y1501013D1*
X1266655Y1489075D1*
Y1477137D1*
X1264278Y1467575D1*
X1259470Y1462766D1*
X1252285Y1460390D1*
X1249908D1*
X1242779Y1462766D1*
X1237970Y1467575D1*
X1235594Y1474760D1*
Y1477137D1*
X1237970Y1484322D1*
X1242779Y1489075D1*
X1249908Y1491451D1*
X1252285D1*
X1259470Y1489075D1*
X1264278Y1484322D1*
X1266655Y1477137D1*
M02*
